<?xml version="1.0" encoding="UTF-8" standalone="no"?>
<!-- Created with Inkscape (http://www.inkscape.org/) -->
<svg
   xmlns:dc="http://purl.org/dc/elements/1.1/"
   xmlns:cc="http://web.resource.org/cc/"
   xmlns:rdf="http://www.w3.org/1999/02/22-rdf-syntax-ns#"
   xmlns:svg="http://www.w3.org/2000/svg"
   xmlns="http://www.w3.org/2000/svg"
   xmlns:sodipodi="http://sodipodi.sourceforge.net/DTD/sodipodi-0.dtd"
   xmlns:inkscape="http://www.inkscape.org/namespaces/inkscape"
   width="412.00339"
   height="426.43915"
   id="svg2"
   sodipodi:version="0.32"
   inkscape:version="0.45.1"
   version="1.0"
   sodipodi:docbase="C:\Documents and Settings\ryan\Desktop"
   sodipodi:docname="kidsseat.svg"
   inkscape:output_extension="org.inkscape.output.svg.inkscape">
  <defs
     id="defs4" />
  <sodipodi:namedview
     id="base"
     pagecolor="#ffffff"
     bordercolor="#666666"
     borderopacity="1.0"
     gridtolerance="10000"
     guidetolerance="10"
     objecttolerance="10"
     inkscape:pageopacity="0.0"
     inkscape:pageshadow="2"
     inkscape:zoom="1"
     inkscape:cx="72.296537"
     inkscape:cy="201.62441"
     inkscape:document-units="px"
     inkscape:current-layer="layer1"
     inkscape:window-width="1280"
     inkscape:window-height="969"
     inkscape:window-x="-4"
     inkscape:window-y="-4" />
  <metadata
     id="metadata7">
    <rdf:RDF>
      <cc:Work
         rdf:about="">
        <dc:format>image/svg+xml</dc:format>
        <dc:type
           rdf:resource="http://purl.org/dc/dcmitype/StillImage" />
      </cc:Work>
    </rdf:RDF>
  </metadata>
  <g
     inkscape:label="Layer 1"
     inkscape:groupmode="layer"
     id="layer1"
     transform="translate(-6.1237102,-11.568329)">
    <path
       style="fill:#000000"
       d="M 319.31037,437.42255 C 318.26329,432.69473 316.73852,429.81853 311.78384,423.22508 C 310.35829,421.32805 309.52165,420.3774 309.47784,420.60491 C 309.36647,421.18329 302.58614,423.89778 297.20412,425.51875 C 274.2214,432.44073 252.32407,430.74152 218.29043,419.3952 C 208.64935,416.18102 191.20272,409.81281 184.36392,407.01165 C 162.84332,398.1969 148.54624,388.31398 141.42563,377.33043 C 140.91469,376.54235 140.47871,375.89751 140.45677,375.89751 C 140.43487,375.89751 139.15322,376.42007 137.60868,377.05877 C 135.31935,378.00546 134.53147,378.45152 133.34501,379.47269 C 130.07078,382.29074 127.82925,383.41593 125.56904,383.37605 C 125.09112,383.36757 124.40146,383.46697 124.03648,383.59686 C 123.41276,383.81885 123.36554,383.91175 123.2505,385.14375 C 123.0886,386.8775 122.42398,388.59731 121.49774,389.67942 C 120.77182,390.52747 120.56094,390.61931 115.59688,392.24972 C 103.57485,396.19818 99.61041,396.59871 97.08274,394.12021 C 96.27999,393.33299 96.08861,393.24887 95.02765,393.2165 C 93.47625,393.1692 91.25595,392.71372 85.243212,391.20946 C 76.519028,389.02686 72.190324,387.8038 71.259867,387.2585 C 70.194096,386.63396 69.656213,385.7102 69.665744,384.52083 C 69.675849,383.25935 69.532813,382.70411 69.197728,382.70411 C 69.034302,382.70411 59.743304,385.9229 48.551165,389.857 C 29.654039,396.49952 28.176722,396.98505 27.851333,396.6596 C 27.285337,396.09361 27.778473,395.64117 29.750045,394.91768 C 30.731843,394.55743 39.671112,391.40882 49.615063,387.92075 C 59.559022,384.43269 67.769679,381.51321 67.860956,381.4331 C 68.313092,381.03611 64.176336,356.52683 60.78752,339.52492 C 51.336797,292.1093 40.161911,258.51305 28.862307,243.54516 C 27.806431,242.14649 27.286101,241.28575 27.415022,241.15114 C 27.545325,241.01511 27.819819,241.19533 28.193166,241.66208 C 37.501153,253.29906 46.436767,276.07503 54.612263,309.00162 C 59.726915,329.60095 65.075834,356.7714 67.907331,376.53561 C 68.21735,378.69988 68.53579,380.63091 68.614834,380.82671 C 68.739808,381.13638 70.146048,380.69946 79.393808,377.47758 C 85.243212,375.43974 91.34216,373.33427 92.94704,372.79887 L 95.865,371.82529 L 95.98672,371.04304 C 96.38183,368.5037 97.74184,366.82312 100.87974,364.99677 C 105.57205,362.26568 114.90627,359.49035 118.34334,359.80437 L 119.64404,359.92321 L 120.15133,359.14421 C 121.29758,357.38407 123.52069,356.5385 125.06961,357.27351 L 125.81844,357.62888 L 127.59901,356.47218 C 128.57833,355.83596 130.34264,354.83372 131.51971,354.24494 L 133.6598,353.1744 L 133.388,350.97597 C 132.59878,344.59228 132.61947,339.1086 133.44567,335.69619 C 133.87997,333.90241 135.20362,331.14799 136.17225,330.02229 C 137.18333,328.84732 138.8261,327.66003 140.23036,327.08931 L 141.36867,326.62667 L 136.39411,326.38596 C 131.28447,326.13876 130.67419,326.02136 129.8676,325.13013 C 129.26324,324.4623 128.42499,322.41786 128.08299,320.77762 C 127.06183,315.88007 127.45049,305.76397 128.98079,297.40921 C 130.37122,289.81803 131.47808,287.1384 134.52821,283.97902 L 135.89174,282.56659 L 135.09246,281.32019 C 132.74674,277.66215 129.61948,268.31063 127.04635,257.25964 C 125.17382,249.2175 122.18696,241.12196 111.72422,215.73033 C 101.75377,191.53361 101.30189,190.006 101.31067,180.52763 C 101.31544,175.37177 101.59329,172.92173 102.69763,168.29707 C 103.88944,163.30611 105.19754,159.88614 108.08576,154.21046 C 110.32976,149.80078 111.55495,145.8339 112.34115,140.43266 C 112.7601,137.55424 113.01583,133.20286 112.76661,133.19355 C 112.30056,133.17614 97.45501,136.04906 97.29635,136.18738 C 97.19872,136.27243 97.21785,137.3302 97.33887,138.53798 C 97.55192,140.6643 97.58226,140.75444 98.29591,141.38094 C 99.57641,142.50502 99.82889,143.60398 99.08637,144.82166 C 98.04485,146.5297 95.72582,147.50172 92.68791,147.50355 C 90.46646,147.50489 89.27728,147.18318 88.05361,146.24984 C 86.592927,145.13573 86.429391,143.58701 87.62821,142.2216 C 88.26839,141.49251 88.27026,141.48266 88.11952,139.67246 L 87.96811,137.85524 L 87.40333,137.9762 C 82.857412,138.94987 6.588243,153.3892 6.391019,153.31355 C 6.039036,153.17849 6.032852,152.15031 6.383207,152.0159 C 6.52969,151.95968 24.86544,148.43123 47.129355,144.17485 C 69.393178,139.91851 87.65931,136.38584 87.72065,136.32449 C 87.782,136.26314 87.72035,134.95631 87.58361,133.42044 C 87.39857,131.34165 87.39654,130.55381 87.5757,130.33795 C 88.0605,129.75378 87.3459,129.79903 84.032632,130.56227 C 78.030751,131.94487 76.324342,132.18431 72.37456,132.1981 C 68.417665,132.21192 66.09432,131.89614 63.198895,130.95098 C 59.168177,129.63522 55.856076,127.18583 54.737636,124.69364 C 53.535987,122.01593 52.514099,116.47397 51.736973,108.4205 C 51.115217,101.97664 50.791501,78.56182 51.20914,70.23989 C 51.712317,60.21264 54.42397,53.27885 58.945233,50.45829 C 59.601541,50.04884 60.139779,49.599828 60.141252,49.460494 C 60.142771,49.32116 60.217822,49.161535 60.308081,49.105755 C 60.673306,48.880046 87.31536,44.674951 100.13256,42.819986 C 141.54687,36.826345 166.31199,35.554174 175.59849,38.943336 C 177.47453,39.628002 179.00581,40.57483 179.52939,41.373892 C 179.83754,41.844182 180.04969,41.896987 182.16739,42.030455 C 194.8129,42.827435 213.01402,45.105323 223.993,47.264951 C 225.84254,47.628766 227.5217,47.873774 227.72447,47.809419 C 227.92726,47.745063 228.92656,47.874529 229.9452,48.097128 L 231.79722,48.501843 L 231.79722,47.581309 C 231.79722,46.676545 231.77793,46.651952 230.67082,46.145092 C 228.25912,45.040977 227.06453,43.345018 227.06453,41.025238 C 227.06453,40.130115 227.21785,39.350025 227.5418,38.59701 C 227.99526,37.542889 228.0019,37.451422 227.67474,36.76199 C 227.48535,36.362904 227.3304,35.881073 227.3304,35.691244 C 227.3304,35.501414 228.34804,33.362232 229.59179,30.937515 C 235.09505,20.20879 236.42586,18.341365 239.17318,17.492808 C 242.16726,16.568026 248.24894,16.156417 251.68517,16.645997 C 256.3258,17.307171 258.14861,18.836547 259.62983,23.311753 C 260.7699,26.756285 261.78868,32.995088 261.78868,36.532161 C 261.78868,37.537578 261.94042,38.44678 262.25041,39.298629 C 263.25016,42.045871 262.70888,45.056092 260.82912,47.203041 C 259.93588,48.223229 257.34492,49.82018 256.58297,49.82018 C 256.44196,49.82018 256.20903,50.07828 256.06529,50.39373 C 255.73451,51.11975 254.64006,55.35997 254.45649,56.62674 L 254.31781,57.58391 L 255.97935,58.78431 C 260.70319,62.19702 264.78433,67.07711 267.41801,72.46228 C 270.68125,79.13475 274.11034,89.71684 275.69274,97.99794 C 276.64757,102.99479 276.95822,106.04104 276.96167,110.4412 C 276.96833,118.93132 275.82306,121.36659 268.3042,128.8501 C 263.0825,134.04724 257.8122,138.38337 252.5134,141.84189 C 249.34841,143.90767 248.89596,144.88696 249.88514,147.53073 L 250.31849,148.68899 L 251.95901,149.04233 C 257.8187,150.30446 263.22939,152.31536 267.45107,154.79995 C 274.7024,159.06757 279.95535,165.11831 284.43135,174.35918 C 288.17333,182.08457 289.92685,188.88385 290.21864,196.79957 C 290.54399,205.62518 288.61693,214.17376 284.37522,222.72148 C 282.82077,225.85396 282.1523,226.85697 279.34352,230.2713 C 278.10569,231.77602 276.99694,233.18646 276.87963,233.40572 C 276.47058,234.17 277.71541,235.90106 279.60549,237.19628 L 280.29951,237.67186 L 281.6262,237.23799 C 289.19183,234.76359 298.2193,234.21546 306.212,235.74514 C 315.35595,237.49513 323.53245,241.22736 335.27838,249.01266 C 345.71505,255.93023 352.80526,261.66253 354.09689,264.2272 C 355.47548,266.96441 356.0604,270.24364 356.15364,275.75766 L 356.22811,280.16258 L 356.88227,281.18167 C 357.39474,281.98005 357.51522,282.36821 357.43845,282.97377 L 357.34048,283.74683 L 358.52229,283.98415 C 359.17228,284.1147 360.05928,284.2215 360.49339,284.2215 C 361.47283,284.2215 361.96114,284.7017 361.5885,285.29839 C 361.29531,285.76788 361.14514,285.71881 364.49104,286.24676 C 373.85052,287.72377 383.06604,291.79863 388.4939,296.86021 C 392.06882,300.19398 393.41322,302.39869 395.37857,308.15083 C 398.07274,316.03605 401.57497,324.27786 405.6373,332.29291 C 407.0307,335.04211 408.72318,338.58366 409.39834,340.16301 C 411.4715,345.01245 418.12712,363.0429 418.12712,363.80967 C 418.12712,364.27033 417.61486,364.65905 417.21176,364.5044 C 417.02962,364.43453 416.78858,364.12172 416.67613,363.80942 C 416.56365,363.49707 415.35163,360.13073 413.98277,356.32859 C 410.03508,345.36377 407.76962,339.86477 404.53567,333.39735 C 399.9755,324.27766 396.64741,316.46301 393.88371,308.38565 C 392.40307,304.05821 392.29746,303.82644 390.84493,301.71579 C 386.97536,296.09288 378.63701,291.12324 368.98269,288.68589 C 366.09835,287.95773 362.17978,287.2901 359.52613,287.07481 C 358.12055,286.96075 357.57926,286.82858 357.33113,286.53876 C 357.01644,286.17121 356.9396,286.18693 355.60546,286.89195 C 350.84478,289.40754 345.38421,296.88451 342.79816,304.42851 C 342.11592,306.41865 342.10343,306.52469 341.97203,311.44776 C 341.85628,315.78484 341.77938,316.6089 341.39109,317.67467 C 340.56102,319.95301 338.82916,321.72928 336.08194,323.11999 C 334.56767,323.8865 333.74266,324.7852 332.80194,326.69294 C 332.31074,327.6891 331.61468,328.79826 331.25514,329.1578 C 330.47323,329.93968 328.59295,330.84 327.65634,330.8809 C 327.05083,330.90733 326.98287,330.84913 326.98287,330.30404 C 326.98287,329.77757 327.11405,329.64799 327.97976,329.31935 C 329.96904,328.56424 330.43623,328.13139 331.36732,326.18053 C 332.38384,324.0507 333.62141,322.71372 335.49109,321.72542 C 338.14132,320.32457 339.47361,318.95259 340.09394,316.98543 C 340.22433,316.57195 340.396,313.98426 340.47546,311.23506 L 340.61986,306.23649 L 341.40663,303.92914 C 344.30734,295.42217 351.01341,286.82112 356.19932,284.95626 C 356.80105,284.7399 357.29338,284.48606 357.29338,284.39219 C 357.29338,284.29827 357.25723,284.2215 357.21302,284.2215 C 357.16883,284.2215 355.23055,283.84527 352.90574,283.38547 C 348.76528,282.56659 342.59289,281.59566 337.29908,280.93052 C 335.83673,280.74679 334.38589,280.545 334.07497,280.48203 C 333.58256,280.38237 333.49161,280.45007 333.36922,281.00728 C 333.29194,281.35911 332.8763,282.0349 332.44554,282.5091 C 331.80756,283.21149 331.40617,283.43515 330.28016,283.71588 C 327.77709,284.33982 325.612,283.8882 322.38424,282.06859 C 319.04173,280.18434 316.04919,279.3096 311.19017,278.79653 C 308.1594,278.47647 307.24991,278.18025 305.40835,276.91349 C 303.16316,275.36905 298.37596,274.34726 293.37542,274.34519 C 288.55127,274.34315 283.76073,275.53704 277.62032,278.27158 C 273.35459,280.1713 268.0511,281.86954 259.68751,284.01382 L 258.75622,284.2526 L 260.21927,285.32107 C 262.41281,286.92311 263.17556,287.3104 265.59114,288.04865 C 267.34501,288.58466 267.97625,288.88914 268.66474,289.53135 C 269.36907,290.18837 269.53116,290.48332 269.53116,291.10787 C 269.53116,292.82741 267.77444,294.03597 265.0684,294.17799 C 261.7994,294.34959 255.60959,293.2625 253.79268,292.1977 C 253.29382,291.90539 252.82351,291.66615 252.74755,291.66615 C 252.6716,291.66615 253.03438,292.16867 253.55372,292.78286 C 254.07306,293.39706 255.31894,295.01437 256.32234,296.37693 C 257.32571,297.73942 259.08874,299.98879 260.24016,301.37549 C 265.15399,307.29334 265.83008,308.33009 265.83008,309.9471 C 265.83008,311.51966 264.8765,312.724 263.63131,312.724 C 263.02071,312.724 263.02549,312.73399 264.27505,314.06976 C 264.96747,314.80999 265.70237,315.77043 265.90817,316.20414 C 266.74178,317.96084 266.19691,319.70977 264.55708,320.54093 C 263.3899,321.13254 262.25103,321.15004 261.10034,320.59409 C 260.61605,320.36014 260.18996,320.1687 260.15344,320.1687 C 260.11692,320.1687 260.08704,320.44852 260.08704,320.79045 C 260.08704,321.19753 259.86694,321.63227 259.44959,322.04965 C 258.29827,323.20097 256.82841,323.18971 254.11291,322.00866 L 252.49926,321.30683 L 252.59502,322.30355 C 252.7138,323.53961 252.28549,324.27066 251.08313,324.88409 C 249.24432,325.82215 246.58592,325.60397 244.05442,324.30714 C 241.98926,323.24922 237.55332,320.4264 233.05563,317.30802 C 230.92766,315.83269 229.15618,314.65604 229.11898,314.69324 C 229.08178,314.73043 229.13783,315.37938 229.2435,316.13534 C 229.59349,318.63901 229.89644,324.46884 229.75669,326.01101 L 229.61912,327.52912 L 231.39599,328.11455 C 236.05764,329.65042 245.70571,333.98177 257.39982,339.78861 C 262.41209,342.27746 264.97464,343.44735 264.87082,343.19929 C 263.64621,340.27342 263.16116,336.91149 263.49297,333.64937 C 264.23464,326.35816 267.56192,319.87025 273.51868,314.10015 C 277.8855,309.87018 282.49035,307.25458 287.95144,305.90223 C 289.71262,305.46613 290.47753,305.4026 293.90719,305.40763 C 297.47245,305.4129 298.03624,305.46572 299.90671,305.96987 C 301.04217,306.27587 302.81294,306.92036 303.84176,307.40207 L 305.71233,308.27789 L 304.75517,307.29456 C 301.16351,303.60481 292.34384,298.47747 283.91003,295.17623 C 281.86275,294.37486 280.06804,293.62844 279.92181,293.51747 C 279.54534,293.23185 279.59186,292.52821 279.99749,292.37259 C 280.42646,292.20794 282.25493,292.84076 286.4625,294.60994 C 294.76098,298.09921 301.37655,302.07762 305.74205,306.20412 C 307.69128,308.04661 307.995,308.54827 307.47581,309.06744 C 307.27466,309.26862 307.33261,309.40282 307.7417,309.68325 C 308.74192,310.36889 311.17888,312.83736 312.79655,314.80344 C 316.73462,319.58971 318.63429,322.88725 319.93107,327.188 C 321.0044,330.74766 321.22285,331.2073 323.09236,333.83944 C 324.02541,335.15313 324.95966,336.56296 325.16845,336.97243 C 325.95346,338.51196 326.72741,341.05546 328.04756,346.43452 C 331.41595,360.15919 339.01872,382.88428 344.17804,394.64931 C 344.82747,396.13024 345.90639,398.95392 346.57565,400.92412 C 347.2449,402.89432 347.81383,404.53568 347.83995,404.57151 C 347.88896,404.63878 379.61162,386.80408 379.89012,386.55267 C 379.97609,386.47504 378.69899,384.83556 377.0521,382.90935 C 372.87481,378.02363 371.0721,375.35962 368.57247,370.37851 C 365.35775,363.97244 362.26548,354.67516 360.71589,346.75686 C 360.17048,343.96986 359.63314,339.8434 359.63314,338.44198 C 359.63314,336.36138 358.15534,334.62874 355.13704,333.1705 C 354.15877,332.69781 350.91756,331.44273 347.93442,330.38132 C 341.21994,327.99232 336.66096,326.01136 336.66096,325.48271 C 336.66096,325.03032 336.95445,324.63552 337.29076,324.63552 C 337.49513,324.63552 338.56172,325.0533 339.66094,325.56399 C 341.82086,326.56736 344.14596,327.4628 350.27411,329.65113 C 355.14298,331.38981 357.46344,332.51876 358.94083,333.8676 C 360.60464,335.38668 360.9241,336.15299 361.16186,339.19531 C 362.21815,352.7116 368.73738,370.51089 375.78064,379.10873 C 377.38262,381.06427 381.38794,385.68194 381.48222,385.68194 C 381.53037,385.68194 381.76103,385.57959 381.99479,385.45448 C 382.81213,385.01705 383.48176,386.25919 382.67268,386.71199 C 382.3578,386.88821 382.41821,387.03687 383.17418,387.94561 C 386.86396,392.38117 394.72294,403.78763 398.24825,409.82402 C 401.9713,416.19893 404.91494,422.86032 404.38222,423.70482 C 404.2537,423.90859 403.97007,424.07527 403.75189,424.07527 C 403.44283,424.07527 403.1844,423.60552 402.58167,421.94823 C 399.8323,414.38816 392.1284,401.86995 383.05048,390.21157 L 381.02905,387.6156 L 380.38142,388.00493 C 380.02523,388.21904 372.79429,392.29766 364.31267,397.06845 C 355.83104,401.83925 348.76516,405.85749 348.61073,405.99783 C 348.38024,406.20729 348.50193,406.8398 349.28982,409.5275 C 349.81775,411.32839 351.06565,415.76912 352.06291,419.39575 C 353.06018,423.02233 354.03487,426.53535 354.2289,427.20238 C 354.62337,428.55863 354.53344,429.07383 353.90225,429.07383 C 353.26055,429.07383 353.00224,428.39783 351.33844,422.36415 C 346.79329,405.88123 345.07071,400.44535 342.51153,394.50922 C 337.188,382.1611 329.42681,358.83582 326.55182,346.54417 C 324.9214,339.57347 324.32875,338.08712 321.76029,334.5263 C 319.9774,332.05459 319.52929,331.12018 318.59821,327.93245 C 317.41919,323.89584 315.55495,320.50662 312.36686,316.60372 C 306.69431,309.65921 302.18566,307.12951 294.9484,306.8305 C 289.13469,306.59035 284.10589,308.04997 279.08807,311.43406 C 271.14946,316.78795 265.96761,324.91819 264.97595,333.57581 C 264.7239,335.77641 264.89371,338.98672 265.23036,338.38521 C 265.33786,338.19311 265.59029,338.03592 265.79134,338.03592 C 265.99237,338.03592 267.40569,339.06491 268.93202,340.32253 C 270.45838,341.58015 273.1557,343.78594 274.92606,345.22434 C 280.25663,349.55528 282.10395,351.95615 282.59944,355.19706 C 282.72139,355.99488 282.87198,358.80131 282.93406,361.43356 C 283.19843,372.64589 285.08995,380.60062 289.66659,389.747 C 292.83211,396.07321 296.32358,401.05021 308.45141,416.52422 C 311.33964,420.20936 314.40669,424.22946 315.26708,425.45786 C 318.20276,429.64917 319.91001,433.08253 320.51235,436.00642 C 320.82818,437.5394 320.70232,438.00747 319.97431,438.00747 C 319.56456,438.00747 319.40974,437.87104 319.31037,437.42255 z M 279.01782,427.67952 C 288.57035,426.70574 297.24236,424.43693 307.23471,420.29749 L 308.96981,419.57867 L 305.96118,415.76486 C 300.87079,409.31216 293.89115,399.89194 292.04638,396.98444 C 286.40715,388.09672 283.05778,378.85996 281.88831,368.97096 C 281.70932,367.45761 281.5124,364.06576 281.45066,361.43356 C 281.32417,356.03877 281.13333,354.59017 280.33365,352.95434 C 279.6701,351.59692 277.70667,349.42376 275.42287,347.51891 L 273.76797,346.1386 L 272.83006,346.60723 C 272.07737,346.98341 271.53518,347.07404 270.08419,347.06642 L 268.27619,347.05693 L 262.69812,344.13228 C 253.35065,339.23119 241.42979,333.63329 234.56239,330.92007 C 229.17982,328.79349 229.53993,328.83458 229.35369,330.32525 C 229.13729,332.05713 228.28313,334.91293 227.46097,336.65338 C 226.12493,339.48153 223.74269,341.93492 220.90505,343.40493 C 218.04354,344.88738 215.29771,345.3352 212.0142,344.85516 C 209.56992,344.49775 207.86987,343.94191 204.78364,342.49107 C 203.32129,341.80361 201.20902,340.91085 200.08973,340.50722 L 198.05464,339.77334 L 196.04832,341.81157 C 189.80963,348.14965 177.62631,356.53246 162.09496,365.17354 C 157.91442,367.49942 146.59167,373.19362 143.47703,374.53649 C 142.69051,374.87557 142.04401,375.24875 142.04037,375.36571 C 142.02748,375.77943 144.41184,379.0753 146.38494,381.37109 C 151.6421,387.48825 159.8567,393.50885 170.43172,398.99528 C 178.38471,403.12133 186.13308,406.33525 202.55023,412.31754 C 231.99318,423.04643 248.48315,427.15838 265.83008,428.09695 C 268.38192,428.23501 275.90438,427.99694 279.01782,427.67952 z M 260.19339,377.2494 C 259.84242,377.20907 258.50237,377.0706 257.21551,376.94157 C 245.77904,375.79517 226.83453,370.78397 205.84717,363.35358 C 195.35173,359.63775 189.25615,357.31298 189.25615,357.02595 C 189.25615,356.87638 189.3153,356.75399 189.38759,356.75399 C 189.45992,356.75399 191.7332,357.5782 194.43936,358.58553 C 226.6493,370.57507 250.29746,376.74724 264.02765,376.74814 C 267.80752,376.74835 269.72895,376.49394 273.00889,375.55893 C 273.35385,375.46059 273.48747,375.51199 273.48747,375.74301 C 273.48747,376.14273 270.9504,376.85024 268.38812,377.16497 C 266.72623,377.36915 261.68787,377.42105 260.19339,377.2494 z M 261.78868,368.75638 C 261.37922,368.71026 260.03917,368.5652 258.8108,368.43399 C 247.15895,367.18951 230.15394,362.70199 209.1441,355.32731 C 203.35571,353.29551 192.78176,349.41006 192.40187,349.17529 C 192.2728,349.09553 192.27157,348.97401 192.39851,348.84701 C 192.52547,348.72011 194.59923,349.39058 198.00058,350.65825 C 225.68898,360.97772 246.05499,366.61474 260.8315,368.04903 C 263.79126,368.33636 267.36386,368.18536 268.9722,367.70491 C 270.04165,367.38552 270.7493,367.44772 270.36859,367.8277 C 269.7564,368.43875 264.25538,369.03418 261.78868,368.75638 z M 107.23904,393.24775 C 112.15002,391.95542 119.77393,389.36829 120.29,388.81894 C 120.96802,388.09727 121.63454,386.43663 121.76896,385.13421 C 121.8806,384.05256 121.85891,383.9803 121.42233,383.9803 C 120.78039,383.9803 119.78676,383.43663 119.5902,382.97784 C 119.50065,382.76875 119.45006,377.89176 119.47776,372.14002 L 119.52815,361.68228 L 119.04404,361.42316 C 117.50178,360.59779 109.25124,362.62111 103.82124,365.15628 C 100.79496,366.56922 98.58669,368.21515 97.86107,369.59875 C 97.40422,370.46984 97.17254,375.3551 97.1628,384.32107 C 97.15479,391.72325 97.15884,391.79367 97.63503,392.51026 C 97.89918,392.9078 98.54529,393.45553 99.0708,393.72749 C 100.47819,394.45585 103.27138,394.29186 107.23904,393.24775 z M 99.60675,391.43454 C 99.42551,391.14136 99.72,391.03471 104.90351,389.5166 C 112.40047,387.32091 114.5752,386.36362 115.36602,384.91131 C 115.70217,384.29397 115.71028,383.52294 115.48059,373.99088 C 115.34466,368.34996 115.2924,363.63934 115.36439,363.52274 C 115.43644,363.40619 115.57268,363.39092 115.66711,363.4889 C 115.76158,363.58683 115.95246,368.32581 116.09133,374.02001 L 116.34376,384.37307 L 115.85804,385.23732 C 115.25429,386.31151 114.26661,387.00755 112.23714,387.78893 C 110.49405,388.46 106.38844,389.76202 102.7914,390.78441 C 101.50455,391.15015 100.29218,391.49567 100.0973,391.5522 C 99.90246,391.60878 99.68169,391.5558 99.60675,391.43454 z M 100.4994,382.78732 C 100.41467,382.70254 100.34531,379.87977 100.34531,376.5145 C 100.34531,370.87083 100.37418,370.38734 100.71753,370.28606 C 103.95306,369.33207 108.70205,368.02046 108.74233,368.06963 C 108.7712,368.10489 108.85761,370.9136 108.93438,374.31119 L 109.07391,380.48863 L 105.18821,381.62798 C 103.05108,382.25462 101.15647,382.8065 100.97803,382.8544 C 100.79953,382.90219 100.58419,382.87205 100.4994,382.78732 z M 104.99337,381.05839 L 108.47545,380.05086 L 108.32181,374.5177 C 108.23728,371.47448 108.13265,368.94645 108.08937,368.89992 C 107.97622,368.7783 101.14369,370.75155 100.99838,370.94781 C 100.93165,371.03787 100.90695,373.57634 100.94353,376.58883 C 100.99234,380.61335 101.07641,382.06596 101.26059,382.06596 C 101.39845,382.06596 103.07817,381.61256 104.99337,381.05839 z M 95.37541,391.68762 C 95.54711,391.57645 95.64078,388.91285 95.69973,382.46715 L 95.7826,373.40297 L 94.30208,373.90655 C 93.48777,374.18354 92.24111,374.7879 91.53167,375.24956 C 89.69197,376.44681 88.84296,376.74835 87.31089,376.74835 C 86.130741,376.74835 85.016612,377.07947 78.42357,379.38973 C 73.056543,381.27043 70.91094,382.1127 70.97355,382.31443 C 71.021898,382.47026 71.079642,383.18233 71.101816,383.89689 C 71.149864,385.44503 71.214556,385.56985 72.240401,386.09318 C 73.523395,386.74771 89.0176,390.78488 93.01889,391.5072 C 95.08868,391.88083 95.07819,391.88002 95.37541,391.68762 z M 122.12381,383.02463 C 122.41664,382.8029 122.63485,382.77916 122.92949,382.9368 C 123.48597,383.23464 124.05752,383.01007 124.34415,382.38095 C 124.48246,382.07738 124.76376,381.85327 125.00637,381.85327 C 125.31977,381.85327 125.48813,381.63047 125.66168,380.98593 C 126.05272,379.53373 125.90853,379.22239 124.74032,378.9968 C 124.00366,378.85458 123.50563,378.87574 122.96215,379.0722 C 121.6089,379.56158 121.63586,379.7309 121.6057,370.55463 C 121.57437,361.02222 121.46589,361.56766 123.83358,359.3528 C 125.10803,358.16063 125.19521,358.02561 124.82025,357.82494 C 123.76661,357.26108 121.93872,357.86412 120.877,359.12585 C 120.40675,359.68474 120.32014,359.95487 120.41791,360.5575 C 120.48423,360.96605 120.45891,361.40205 120.36169,361.52642 C 120.26442,361.65083 120.12449,366.41933 120.05071,372.12313 C 119.91914,382.29267 119.92478,382.50196 120.34079,382.91797 C 120.83539,383.41253 121.55455,383.45561 122.12381,383.02463 z M 128.29073,381.21172 C 129.00745,380.85888 129.88064,380.33591 130.23118,380.04949 L 130.86853,379.52876 L 129.24665,379.52114 C 128.35461,379.51693 127.321,379.45275 126.94976,379.37846 C 126.27895,379.24436 126.27503,379.24862 126.32004,380.06979 C 126.34497,380.52426 126.29528,381.11146 126.20967,381.37469 C 125.98581,382.06271 126.67098,382.00913 128.29073,381.21172 z M 135.04915,376.47401 C 148.96893,370.96805 166.30067,361.73926 180.156,352.45568 C 186.84196,347.97582 193.93241,342.32891 195.77906,340.01322 L 196.45256,339.16868 L 186.16356,335.30256 L 175.87459,331.43649 L 173.40503,333.35098 C 166.47535,338.72314 159.3468,343.36983 151.92636,347.35168 C 147.41418,349.77295 143.42019,351.49006 138.66756,353.05202 C 132.30557,355.14288 127.26515,357.90825 124.43417,360.86097 L 123.10477,362.24757 L 123.10477,369.81698 L 123.10477,377.38645 L 123.90241,377.39569 C 124.34111,377.40081 125.27436,377.54044 125.97629,377.70595 C 126.76861,377.89277 128.05903,377.98197 129.37959,377.94113 C 131.43218,377.8776 131.63065,377.82626 135.04915,376.47401 z M 89.39784,375.80196 C 90.45875,375.35871 90.30683,375.22679 89.17824,375.61134 C 88.25469,375.92603 87.98237,376.11021 88.44064,376.11021 C 88.56135,376.11021 88.99208,375.97154 89.39784,375.80196 z M 138.57797,351.52268 C 144.64069,349.60414 151.17477,346.41473 159.15017,341.48105 C 164.69358,338.05186 174.33747,331.10399 173.99712,330.78469 C 173.85935,330.65541 170.74751,329.38181 163.60683,326.53215 C 161.0802,325.52381 159.00938,325.37641 153.15592,325.78815 C 146.6959,326.24263 147.06079,326.15896 147.24023,327.14436 C 147.48226,328.47352 148.74636,331.34718 149.75836,332.86886 C 150.28683,333.66348 151.25407,334.82378 151.90773,335.44737 C 153.18082,336.66181 153.33367,337.04311 152.68632,337.38951 C 152.14802,337.6776 150.83799,336.69834 149.41227,334.94206 C 148.29167,333.56164 146.46313,330.01919 146.04114,328.41101 C 145.79609,327.47716 145.72559,327.40069 145.10969,327.40069 C 144.74322,327.40069 143.70405,327.58975 142.80045,327.82087 C 138.30405,328.97082 135.81323,331.72692 134.74968,336.72894 C 134.20079,339.31044 134.16531,345.0702 134.67284,349.20294 C 134.85961,350.7238 135.01329,352.08782 135.01435,352.23404 C 135.0172,352.62697 135.20968,352.58856 138.57797,351.52268 z M 271.87072,345.4109 L 272.48736,345.14767 L 269.74366,342.92413 C 268.23463,341.70122 266.59316,340.32822 266.09596,339.87293 C 265.06553,338.92954 264.99189,339.08947 265.61837,340.91035 C 266.90709,344.65606 269.41321,346.45998 271.87072,345.4109 z M 216.81559,343.33416 C 217.50975,343.20639 218.74775,342.79018 219.56666,342.40913 C 224.19462,340.25566 226.77565,336.45976 227.89152,330.16583 C 228.56527,326.36567 228.24055,318.03314 227.1973,312.35178 C 227.04272,311.51002 226.69308,311.43665 226.6902,312.24543 C 226.68678,313.20998 225.72406,314.9795 224.63303,316.02661 C 223.30409,317.30204 220.36446,318.7472 217.65232,319.4584 C 215.83202,319.9357 215.06512,320.01826 212.33468,320.03059 C 209.38533,320.04393 209.0074,319.99974 207.33611,319.44648 C 204.79069,318.60375 202.74595,317.62687 200.58501,316.22099 C 196.97206,313.87055 195.17012,312.11585 191.64224,307.51274 C 186.36099,300.62181 175.80922,291.09153 168.09197,286.24224 C 161.13214,281.86893 152.71714,279.78204 144.54878,280.40364 C 143.00635,280.52104 141.4988,280.67712 141.19867,280.75059 C 139.96028,281.05355 136.69953,283.61831 134.9733,285.64717 C 132.79575,288.2065 131.8718,290.46008 130.7615,295.92027 C 128.20589,308.4881 128.44858,322.4717 131.25425,324.30997 C 131.66196,324.57716 132.74648,324.71345 135.89991,324.89399 C 140.23348,325.14205 144.58509,324.99581 153.4153,324.30541 C 159.83664,323.80335 161.59159,324.03532 166.27374,326.00487 C 172.13943,328.47226 197.32589,338.03592 197.95817,338.03592 C 198.15574,338.03592 198.40833,338.12533 198.51947,338.23457 C 198.6306,338.3438 199.87015,338.86388 201.274,339.39025 C 202.67785,339.91667 204.44918,340.68273 205.21031,341.09265 C 206.80936,341.9539 209.95334,343.05047 211.61431,343.32629 C 213.25812,343.59926 215.35703,343.60241 216.81559,343.33416 z M 250.30259,323.62484 C 251.7097,322.92191 251.20448,321.4005 249.46767,321.11057 C 247.37604,320.76149 246.64975,320.20295 243.7429,316.70789 C 242.15919,314.8037 241.86606,313.98594 242.70954,313.82514 C 242.92593,313.78384 244.37497,314.5946 246.03612,315.68625 C 254.37145,321.1641 258.5981,322.70576 258.5981,320.2682 C 258.5981,319.19339 257.70218,318.31271 252.47805,314.25216 C 248.89116,311.4642 247.95702,310.63655 248.00656,310.29025 C 248.17917,309.08357 249.33908,309.80041 256.68374,315.65256 C 260.02196,318.31246 261.91747,319.53116 262.7105,319.52746 C 263.63447,319.52315 264.39341,319.09917 264.72865,318.40003 C 264.97622,317.88371 264.95467,317.69973 264.54831,316.86035 C 264.0944,315.92265 263.07527,314.91558 257.42822,309.82426 C 253.00788,305.83895 251.95752,304.46179 253.06916,304.10901 C 253.40249,304.00316 253.95002,304.3934 255.56845,305.89005 C 261.27523,311.16743 264.34114,312.58609 264.34114,309.94923 C 264.34114,308.89837 263.37139,307.44531 259.88084,303.26613 C 258.32092,301.39842 256.51779,299.14905 255.87388,298.26752 C 252.49864,293.64676 250.91422,291.89067 249.42604,291.12111 C 248.77002,290.78187 248.62635,290.17208 249.10823,289.77211 C 249.59996,289.36402 252.31344,289.88404 254.06507,290.722 C 257.13936,292.19277 264.05267,293.19152 266.484,292.51613 C 267.38032,292.2671 268.23308,291.44031 268.05965,290.98843 C 267.87611,290.5101 266.57419,289.86318 264.55384,289.2464 C 262.34495,288.57198 261.37064,288.01725 257.95998,285.49201 C 256.49762,284.40929 254.82258,283.30211 254.23763,283.03167 C 251.82038,281.91394 249.10487,281.57805 240.62449,281.34774 C 233.03521,281.14159 229.277,280.68422 225.8259,279.5466 C 225.07405,279.29879 219.43372,276.62027 213.29185,273.5944 C 199.11388,266.60929 194.21654,264.39113 188.33101,262.28856 C 182.4248,260.17857 179.61564,257.92484 178.23229,254.18658 C 177.98174,253.50947 177.58761,251.44139 177.34051,249.50706 C 176.44125,242.46788 174.3151,230.94325 173.81262,230.38445 C 172.84228,229.30539 168.39036,228.84021 164.77425,229.44005 C 160.67189,230.12056 155.68894,232.0249 152.77718,234.02504 C 152.07526,234.50716 151.23832,235.0629 150.91735,235.25997 C 150.59637,235.45704 150.33316,235.78249 150.33241,235.98316 C 150.33167,236.18384 150.75897,239.15111 151.28195,242.57706 C 152.60734,251.25929 153.27747,256.71674 153.52946,260.88059 C 153.77804,264.98818 154.17859,267.54066 154.90016,269.61553 C 155.43251,271.14634 156.33338,272.63152 156.92001,272.94544 C 157.13233,273.0591 158.16072,272.96919 159.59426,272.71174 C 163.0269,272.09511 167.93836,271.95887 170.91345,272.39762 C 177.33617,273.34486 182.80471,275.76045 199.2533,284.91602 C 204.53782,287.85747 211.46952,292.72726 216.58878,297.09483 C 219.63564,299.69429 224.25012,304.37807 225.80472,306.4492 C 227.08131,308.14992 228.60664,311.11796 228.60664,311.90127 C 228.60664,312.47903 228.38604,312.3087 234.89347,316.75589 C 241.3573,321.17329 244.611,323.14217 246.36754,323.69918 C 247.61769,324.09555 249.42877,324.06135 250.30259,323.62484 z M 169.47534,263.21682 C 169.47772,262.10498 171.67639,259.85891 173.80472,258.79415 C 174.98728,258.20253 175.52219,258.05873 176.54012,258.05873 C 178.15825,258.05873 178.12889,258.52838 176.50564,258.61048 C 174.35633,258.71916 171.16418,260.88283 170.22113,262.87022 C 169.85398,263.64389 169.47404,263.82047 169.47534,263.21682 z M 217.64115,318.81077 C 221.65711,317.76077 224.67863,315.79909 225.70587,313.57485 C 226.31213,312.26212 226.2967,310.17766 225.6718,308.96829 C 223.9964,305.72596 217.39842,299.29574 210.20763,293.89725 C 204.44901,289.57403 201.2717,287.62706 190.79261,282.00014 C 181.09005,276.7902 177.64528,275.30816 172.62483,274.18373 C 170.7484,273.76351 169.84815,273.69323 166.39033,273.69709 C 162.17402,273.70187 161.06665,273.83845 155.86141,274.99591 C 152.85927,275.66349 147.86641,277.28846 145.43885,278.38813 C 142.00542,279.94333 141.89331,279.86052 147.43802,279.86489 C 151.70195,279.86829 152.67243,279.93318 154.7766,280.35599 C 161.83069,281.77344 167.33064,284.47611 174.46122,290.02916 C 182.17997,296.04021 188.03316,301.80129 193.10403,308.3786 C 194.08788,309.65469 195.56286,311.34938 196.38178,312.14456 C 199.8436,315.50603 204.65051,318.20322 209.1441,319.30558 C 210.7163,319.69124 215.29265,319.42476 217.64115,318.81077 z M 249.22134,319.45535 C 248.91415,319.19461 247.112,318.23559 247.112,318.3328 C 247.112,318.53637 248.68317,319.53061 249.00483,319.53061 C 249.17266,319.53061 249.27008,319.49676 249.22134,319.45535 z M 356.86798,282.8862 C 356.86798,282.07483 356.5352,281.52411 355.18835,280.10692 C 353.79128,278.6368 351.00667,276.38114 351.21624,276.88935 C 352.18169,279.23029 350.70762,281.95727 348.68216,281.57734 C 347.74634,281.40178 344.27724,279.69501 342.77865,278.67287 L 341.55799,277.84035 L 338.79042,277.84035 C 337.23023,277.84035 336.02284,277.75419 336.02284,277.64292 C 336.02284,277.43743 337.41869,277.23391 339.42613,277.14669 L 340.59602,277.09585 L 339.56441,276.47826 C 338.03128,275.56039 335.20789,274.65885 333.12527,274.4222 C 332.11245,274.30712 331.24081,274.25598 331.18829,274.3085 C 331.13577,274.36101 331.49038,274.76317 331.9763,275.20217 C 333.12138,276.23669 333.51276,277.01899 333.66526,278.57815 L 333.78945,279.84769 L 339.63884,280.64059 C 345.76662,281.47124 351.96624,282.49688 354.84727,283.15669 C 355.78318,283.37101 356.6207,283.55468 356.70845,283.56483 C 356.79618,283.57504 356.86798,283.26964 356.86798,282.8862 z M 260.8315,282.19945 C 268.36503,280.24295 272.59896,278.85691 277.14305,276.85961 C 281.05081,275.14204 284.55959,273.99584 287.64965,273.42742 C 288.75153,273.22471 289.65308,272.99283 289.65308,272.91216 C 289.65308,272.52547 279.78043,269.06319 275.53806,267.9621 C 270.76004,266.72193 266.97603,267.33568 252.85505,271.64125 C 242.61521,274.76337 238.98044,275.83818 233.73714,277.29434 C 231.00198,278.05396 228.72527,278.71433 228.67779,278.76182 C 228.35803,279.08158 234.16025,279.60739 240.94355,279.87337 C 249.21702,280.19779 251.32589,280.39502 253.11936,281.01205 C 254.36781,281.44161 256.13358,282.30808 256.7901,282.81328 C 257.02408,282.99336 257.35909,283.1029 257.53456,283.05678 C 257.71005,283.01062 259.19367,282.62485 260.8315,282.19945 z M 330.22369,282.19772 C 331.18291,281.91287 331.36239,281.76396 331.77596,280.90966 C 332.14555,280.14613 332.22434,279.67786 332.15182,278.67536 C 332.06998,277.54373 331.96988,277.31439 331.22311,276.54721 C 330.13725,275.43171 328.23398,274.5349 325.54306,273.87077 C 322.79215,273.19178 322.46435,273.01292 321.09448,271.44347 C 320.47249,270.73088 319.62858,269.98745 319.21912,269.79145 C 318.41242,269.40532 318.23364,268.78606 318.82175,268.41505 C 319.41877,268.03846 320.50556,268.67082 322.09065,270.31711 L 323.57959,271.86348 L 325.98145,272.47737 C 327.30248,272.81505 328.43473,273.0081 328.49756,272.90642 C 328.68398,272.60484 334.08449,272.97259 335.79591,273.40342 C 337.99305,273.95652 340.04057,274.94644 342.2919,276.54407 C 344.18524,277.88773 347.72094,279.80126 348.81435,280.07419 C 349.52826,280.25233 350.0614,279.56771 350.0614,278.47276 C 350.0614,276.19356 345.60756,272.26609 337.37952,267.2897 C 332.89365,264.57659 331.05416,263.67165 329.4123,263.37031 C 328.43,263.19004 326.19197,263.16228 321.44298,263.27147 C 312.20138,263.48397 311.69187,263.32962 307.41398,259.02085 C 306.01012,257.60685 304.43078,256.15409 303.90434,255.79248 C 303.37789,255.43085 300.98636,254.15385 298.58983,252.95479 C 296.1933,251.75566 293.70464,250.41499 293.05949,249.97543 C 292.41434,249.53588 289.44569,247.13683 286.4625,244.64423 C 283.47931,242.15162 280.16522,239.46432 279.09787,238.67238 C 278.03052,237.88045 276.91756,236.94776 276.62466,236.59964 C 275.38529,235.12673 274.63649,232.72738 274.01162,228.22682 C 273.7482,226.32963 273.55162,225.51482 273.35736,225.51482 C 272.48216,225.51482 265.66925,229.14185 261.59894,231.77475 L 259.4306,233.17733 L 259.56091,233.97242 C 259.63258,234.40969 259.98105,235.96013 260.33524,237.41771 C 261.41406,241.85718 262.948,244.91101 266.29031,249.27316 C 268.96999,252.77055 268.91262,252.59768 268.92415,257.20789 C 268.9337,261.02297 268.95185,261.18406 269.51964,262.49106 C 270.15493,263.9534 270.04273,264.52514 269.14562,264.39696 C 268.80957,264.34897 268.53488,263.91981 268.01593,262.63191 L 267.33027,260.93027 L 267.46238,257.62527 C 267.55578,255.2895 267.51913,254.0919 267.33743,253.54138 C 267.19604,253.11299 266.21507,251.63298 265.15748,250.25252 C 262.23121,246.43278 260.62356,243.52391 259.47952,239.97877 C 258.78887,237.83854 258.48712,236.33473 257.32431,229.23714 C 255.99226,221.10681 255.08514,217.13033 253.8479,213.99805 C 253.1434,212.21447 252.80038,210.9427 252.53672,209.13648 C 251.54589,202.34916 249.10206,192.87165 246.82077,186.96932 C 246.31053,185.64914 245.30586,183.44508 244.5882,182.07131 C 243.48662,179.96276 243.28331,179.40442 243.28331,178.48747 C 243.28331,176.01449 245.00081,174.65366 246.88932,175.63024 C 248.11527,176.26423 249.03855,178.72974 248.28438,179.35566 C 247.77289,179.78015 247.31377,179.41559 246.99336,178.33037 C 246.6553,177.18545 246.33561,176.80526 245.71085,176.80526 C 244.40195,176.80526 244.47868,178.96284 245.87445,181.40537 C 246.40078,182.32648 247.18536,183.91249 247.61794,184.92986 C 249.92636,190.35894 252.89129,201.37852 253.90617,208.30086 C 254.13894,209.88854 254.54519,211.75147 254.80894,212.44071 L 255.28851,213.69387 L 255.65063,212.5044 C 256.85636,208.544 257.72398,203.1723 257.87807,198.7139 C 257.99155,195.43042 257.99033,195.41906 257.58102,195.92452 C 257.08287,196.53968 256.78327,196.21713 257.13526,195.44463 C 257.44659,194.76132 257.85252,194.60581 258.20767,195.03374 C 259.17096,196.1944 258.1686,205.59819 256.38592,212.12496 L 255.71492,214.5817 L 256.20068,216.16639 C 256.81373,218.16632 258.0196,224.07326 258.60849,227.9609 C 259.19442,231.82895 259.09812,231.6031 259.92859,231.05745 C 263.32102,228.82858 270.31209,225.01539 272.74301,224.06799 C 273.09396,223.9312 273.5247,223.73347 273.70017,223.62849 C 273.87566,223.52356 274.49782,223.31761 275.08276,223.17082 C 275.6677,223.02404 276.62488,222.75984 277.20982,222.58371 C 277.8039,222.40486 279.18011,222.25346 280.3277,222.24072 L 282.38202,222.21789 L 282.09749,221.53646 C 281.941,221.1617 280.73985,218.81664 279.42827,216.3252 C 268.37867,195.3357 258.90715,179.20319 253.72818,172.55119 C 247.49996,164.55141 242.77529,161.37422 236.43539,160.92218 C 234.60898,160.79199 234.58477,160.79666 234.48209,161.29994 C 234.42489,161.58022 234.22474,163.8675 234.03729,166.38273 C 233.18742,177.78569 231.77957,192.58112 230.6167,202.32992 C 228.59892,219.2462 228.23235,222.85462 226.69471,240.93595 C 225.13712,259.25227 224.59198,264.50737 223.69376,269.86385 C 223.30334,272.19212 222.63206,275.17324 222.30807,276.01754 C 222.20859,276.27677 222.5808,276.54437 223.90989,277.16907 L 225.64132,277.98292 L 231.64397,276.33025 C 238.31266,274.4941 243.06613,273.09745 252.53599,270.19188 C 267.0968,265.72425 270.63986,265.19752 276.29667,266.65968 C 279.96598,267.60804 285.71565,269.57621 289.86578,271.30449 C 292.70598,272.48727 293.41318,272.69809 294.97071,272.82631 C 300.59649,273.2896 304.32479,274.25456 306.41394,275.78815 C 307.87178,276.85829 308.3405,277.00091 311.45538,277.32205 C 315.82767,277.77287 318.79595,278.61209 322.30335,280.38912 C 326.6465,282.58963 327.92273,282.88102 330.22369,282.19772 z M 329.79101,281.32202 C 329.71714,281.24814 329.7969,280.98754 329.96826,280.74293 C 330.13961,280.49832 330.2798,279.8969 330.2798,279.40651 C 330.2798,278.56566 330.21929,278.47768 329.21628,277.86054 C 328.63134,277.5006 328.15275,277.10955 328.15275,276.99148 C 328.15275,276.65523 328.41451,276.72911 329.71026,277.43089 L 330.91791,278.08501 L 330.91791,279.14313 C 330.91791,280.56986 330.27736,281.8084 329.79101,281.32202 z M 304.96906,271.29962 C 304.96969,270.74392 305.06926,269.93275 305.19027,269.49701 C 305.42213,268.66215 306.59032,266.9805 307.04174,266.83178 C 307.4549,266.69565 307.35473,267.30919 306.89602,267.72433 C 306.19367,268.35994 305.55062,269.99451 305.53133,271.19327 C 305.51911,271.95045 305.42553,272.30999 305.24059,272.30999 C 305.05686,272.30999 304.96824,271.98023 304.96906,271.29962 z M 230.30828,261.71631 C 230.30828,261.6222 230.85425,260.68895 231.52156,259.64241 C 236.53375,251.7818 242.10202,240.74695 244.41416,234.09282 C 246.70555,227.4983 246.51881,223.63985 243.97199,224.95689 C 242.54028,225.69727 240.1003,229.18939 240.08964,230.51338 C 240.08775,230.74734 239.99712,231.07968 239.88821,231.25189 C 239.71907,231.51934 239.66934,231.51061 239.54714,231.19212 C 238.97826,229.70972 241.77591,225.31242 243.89625,224.35629 C 245.70751,223.53949 246.59344,224.52778 246.5555,227.3228 C 246.50777,230.84024 244.39789,236.86308 240.29637,245.19003 C 237.12134,251.63608 231.15528,261.88127 230.57417,261.88548 C 230.42794,261.88654 230.30828,261.81044 230.30828,261.71631 z M 266.36678,244.66625 C 266.13253,244.28723 267.29064,242.37964 268.28802,241.50175 C 269.25576,240.64989 271.15831,239.76606 272.02423,239.76606 C 272.72684,239.76606 272.36696,240.23601 271.4558,240.50843 C 269.3913,241.12562 268.01593,242.23717 267.10329,244.02607 C 266.64589,244.92268 266.5674,244.99087 266.36678,244.66625 z M 138.89901,280.267 C 142.30443,277.95791 147.38274,275.75598 152.86524,274.21138 C 154.08355,273.86813 155.12788,273.5398 155.18597,273.48176 C 155.24406,273.42366 155.14355,273.20802 154.96262,273.00257 C 154.45182,272.42253 153.59363,270.60403 153.22623,269.32302 C 152.66496,267.36616 152.26438,264.49793 152.03922,260.82392 C 151.73055,255.78679 149.92168,242.40846 148.5018,234.66115 C 146.6813,224.72785 141.91988,208.83443 136.64701,195.09042 C 133.55479,187.03036 131.37562,182.28929 129.33228,179.1762 C 127.08769,175.75653 126.38458,173.55268 126.57395,170.53045 C 126.70822,168.38779 127.20241,166.68529 128.43829,164.10779 C 129.47183,161.95224 130.87135,160.40582 134.27181,157.66179 C 138.28827,154.42068 138.98943,153.55832 140.29578,150.25266 C 141.83524,146.35726 142.40052,144.5446 142.9934,141.60253 C 143.73055,137.94443 143.93477,135.33971 144.15234,126.81952 C 144.34326,119.34316 144.35201,119.24007 145.03718,116.39695 C 146.16641,111.71111 146.02136,108.42907 144.35567,100.97581 C 142.13647,91.04595 138.56283,82.22549 133.97822,75.36206 C 133.55475,74.72811 133.11257,74.06113 132.99558,73.8799 C 126.58664,63.95113 120.0842,56.67033 112.89492,51.37321 C 109.08695,48.56749 105.46808,46.648005 102.54769,45.884968 C 101.0382,45.490584 96.178,45.262302 94.7086,45.516787 L 93.64505,45.700968 L 94.81495,45.864586 C 101.04962,46.736553 107.49435,49.895468 113.47187,55.00935 C 117.98046,58.86651 122.62722,64.49058 128.42831,73.11141 C 136.00443,84.37001 140.63426,97.41605 141.10994,108.84591 C 141.27384,112.78473 141.03893,114.70454 139.80851,119.48117 C 138.62726,124.06699 138.52325,124.79551 138.00153,132.13715 C 137.19826,143.4406 137.04284,144.53827 135.71239,148.30276 C 135.07153,150.11607 134.05736,152.55688 133.45871,153.72672 C 132.52393,155.55343 132.02086,156.21639 129.89606,158.42171 C 127.30899,161.10683 126.3267,162.56608 125.33777,165.19345 C 124.19956,168.21741 123.86148,171.52818 124.46703,173.72103 C 124.62857,174.306 126.64835,179.18756 128.95545,184.569 C 133.42674,194.99848 135.86711,200.99742 135.86711,201.5593 C 135.86711,202.47581 135.38648,201.58604 133.95659,198.02263 C 133.09989,195.88759 130.50512,189.71948 128.19044,184.31572 C 125.71653,178.54018 123.87624,173.95342 123.72551,173.18721 C 123.16458,170.33607 123.99862,166.17064 125.83082,162.67253 C 126.62944,161.14782 127.31822,160.25588 129.30217,158.1773 C 132.51529,154.81091 133.36082,153.30741 135.41128,147.31425 C 136.40527,144.40894 136.64816,142.55899 137.36202,132.4562 C 137.88446,125.0625 138.1093,123.54841 139.41884,118.60477 L 140.42627,114.80166 L 140.42253,110.22849 C 140.41947,106.48447 140.33333,105.15882 139.94738,102.91676 C 138.73233,95.85828 136.52352,89.19406 133.20584,82.5768 C 131.01232,78.20174 129.61459,75.88282 126.21845,70.98435 C 120.40228,62.59535 116.38937,58.04362 111.08694,53.82101 C 105.58123,49.436602 98.2373,46.445225 92.82435,46.382197 C 91.45821,46.36629 91.01535,46.456712 89.97962,46.963017 C 87.56752,48.142102 84.252893,52.18931 82.720061,55.82693 C 82.232663,56.98366 82.158985,57.45491 82.158985,59.41563 L 82.158985,61.67276 L 83.267684,63.88244 C 84.671232,66.67985 86.317824,68.87028 90.09094,72.95948 C 91.74102,74.74773 93.68702,76.94923 94.41543,77.85171 C 97.30574,81.43268 100.09603,86.30359 102.48919,91.94568 C 104.55513,96.81648 108.56434,109.16327 111.74122,120.43835 C 112.27687,122.33943 112.68679,123.40829 112.95423,123.60107 C 113.27085,123.82932 113.32895,124.04805 113.223,124.61293 C 113.12934,125.11196 113.29428,126.06905 113.75936,127.72502 L 114.4309,130.11645 L 114.31013,134.15784 C 114.05467,142.70595 112.55446,148.82268 109.03114,155.68144 C 108.11829,157.45843 106.98594,159.87991 106.51478,161.06248 C 102.27457,171.70567 101.54437,183.51895 104.52007,193.33475 C 105.46692,196.45804 106.81886,199.90019 113.10772,215.19859 C 123.2263,239.8133 126.74639,249.22647 128.12476,255.35642 C 130.4023,265.48496 133.17732,274.40369 135.47201,278.9698 C 136.1332,280.28547 136.87733,281.45632 137.05232,281.45632 C 137.10333,281.45632 137.93435,280.92113 138.89901,280.267 z M 354.72507,274.47568 C 354.55744,271.75682 354.27356,269.60589 353.8497,267.84317 C 353.584,266.73812 353.25198,266.24778 353.25198,266.96036 C 353.25198,267.95586 352.15823,269.53699 351.08233,270.0968 C 350.34751,270.47911 347.23548,270.48546 345.4358,270.10831 C 344.70505,269.95518 344.13075,269.85244 344.15957,269.87999 C 344.18842,269.90754 344.83416,270.3851 345.59459,270.94125 C 346.35501,271.49745 347.71312,272.66597 348.61263,273.53802 C 349.51211,274.41008 351.23502,275.90846 352.44132,276.86778 L 354.63457,278.61199 L 354.76297,277.89255 C 354.83359,277.49684 354.81653,275.9593 354.72507,274.47568 z M 221.66796,272.49569 C 222.75256,267.62859 223.41242,261.90958 224.88106,244.64717 C 226.65985,223.73935 227.101,219.27954 228.72154,205.82266 C 230.91693,187.5925 232.85345,165.19199 234.44812,139.58183 C 234.73585,134.96081 235.02745,129.74421 235.09611,127.98939 C 235.16477,126.23458 235.26855,124.48773 235.32672,124.10752 L 235.43248,123.41623 L 234.15068,123.41623 C 231.99985,123.41623 222.7735,125.92296 222.40735,126.60681 C 222.31337,126.78229 221.81383,127.85052 221.29726,128.98065 C 220.61854,130.46548 220.42242,131.09983 220.59022,131.26762 C 220.87209,131.5495 220.87551,131.52248 218.61642,146.92018 C 214.92628,172.07176 201.74355,265.84851 201.85216,266.17436 C 201.8881,266.28223 205.79287,268.26354 210.52939,270.57735 C 215.26591,272.89115 219.52413,274.98424 219.99207,275.2286 C 221.01317,275.76192 220.89837,275.9491 221.66796,272.49569 z M 351.552,268.95507 C 352.73458,267.77249 353.17915,265.73597 352.52838,264.48251 C 351.2172,261.95697 337.89252,252.02712 327.45263,245.79545 C 318.58731,240.50366 309.96514,237.4242 301.58276,236.55585 C 298.2355,236.20915 292.16907,236.41546 288.90862,236.98688 C 286.47785,237.41293 282.61195,238.36526 282.05318,238.67568 C 281.8131,238.80902 289.97901,245.81163 293.37542,248.38497 C 294.07736,248.91676 296.77792,250.40185 299.37672,251.68509 C 304.55472,254.24204 305.29879,254.7613 308.47561,258.03519 C 310.18229,259.79402 310.87999,260.35083 312.17992,260.99161 L 313.78148,261.78106 L 321.12664,261.72195 C 325.1665,261.68943 328.95031,261.7533 329.53517,261.86391 C 330.12002,261.97453 330.62055,262.04298 330.64748,262.01604 C 330.75872,261.90481 324.39129,257.3113 321.54368,255.44851 C 310.62304,248.30475 297.42157,242.78459 290.51998,242.47609 C 289.67744,242.43845 289.12013,242.31495 289.0665,242.15405 C 288.92961,241.74337 291.50545,241.82907 293.88696,242.31439 C 301.64877,243.89618 312.87538,248.9849 322.30335,255.19492 C 323.59022,256.04257 326.58663,258.16584 328.96203,259.91341 C 333.40553,263.18242 341.01417,267.92846 343.27593,268.84207 C 345.01917,269.54617 345.96885,269.70702 348.5443,269.73421 L 350.74957,269.7575 L 351.552,268.95507 z M 202.02675,253.69827 C 203.79395,240.90075 209.70843,198.76703 212.43057,179.58317 C 213.48369,172.16141 214.31182,166.05556 214.27083,166.01457 C 214.22982,165.97357 213.86422,166.13593 213.45838,166.37538 C 213.05252,166.61486 212.03984,167.04223 211.20796,167.32521 C 202.1175,170.41705 186.6454,168.60029 171.47415,162.6595 C 166.75086,160.8099 161.81716,158.51254 161.81716,158.16264 C 161.81716,157.71821 162.10419,157.80071 164.1733,158.8399 C 170.76354,162.14972 180.35015,165.3918 187.97991,166.89099 C 196.56583,168.57811 204.97382,168.62053 210.21652,167.00317 C 211.84773,166.49994 213.93205,165.51209 214.29401,165.07067 C 214.42174,164.9149 214.63104,164.06954 214.75914,163.19215 C 214.88721,162.31472 215.85523,155.61452 216.91027,148.30276 C 217.96533,140.99101 218.87737,134.72152 218.93701,134.37056 C 219.09652,133.432 217.90733,135.69238 217.31437,137.45478 C 215.99362,141.38051 214.06579,143.5038 210.10127,145.39926 C 209.10688,145.87469 208.21575,146.36352 208.12101,146.48557 C 208.02625,146.60761 207.98973,147.71347 208.03984,148.94303 C 208.11137,150.69846 208.26533,151.56853 208.75661,152.99384 C 209.47477,155.07739 210.64223,156.95708 211.76833,157.84293 C 212.89274,158.72747 213.39459,158.83529 213.92395,158.30593 C 214.28368,157.94619 214.44621,157.90813 214.80434,158.09983 C 215.73513,158.59793 214.59312,160.47158 212.6363,161.65669 C 209.84946,163.34453 206.44172,163.94091 199.67871,163.92437 C 191.13999,163.90347 182.7905,162.50977 174.93315,159.79395 C 171.04609,158.45038 167.04714,156.30645 165.67979,154.83294 C 164.57818,153.64584 165.80936,152.87404 166.99973,154.00548 C 170.53746,157.36817 180.3812,160.57605 191.70226,162.05555 C 193.66564,162.31213 196.04017,162.41838 199.89141,162.42188 C 204.62407,162.42619 205.57295,162.37002 207.33611,161.98126 C 209.91477,161.41268 211.5171,160.80289 212.42582,160.04425 L 213.146,159.44304 L 212.15141,158.86015 C 210.33789,157.79737 208.62564,155.12666 207.83745,152.13143 C 207.62241,151.31427 207.46726,149.90119 207.45803,148.67614 C 207.44945,147.53616 207.3946,146.60294 207.33611,146.60231 C 207.27761,146.60169 206.47952,146.74474 205.56256,146.9202 C 199.83257,148.01669 192.69049,146.09734 180.94333,140.30416 C 178.29169,138.99649 176.06191,137.82907 175.98825,137.70988 C 175.80773,137.41778 176.03356,136.87555 176.39322,136.73754 C 176.55378,136.67593 178.72394,137.6159 181.21583,138.82637 C 191.16191,143.65784 196.3256,145.40146 201.48671,145.67121 C 205.20186,145.8654 208.80843,144.84639 211.77199,142.76517 C 213.64699,141.4484 214.82148,139.9173 215.62051,137.74809 C 215.96003,136.82635 217.19059,134.10999 218.35507,131.71174 C 220.82324,126.62864 222.18597,123.30038 223.01442,120.332 C 223.58411,118.29076 223.60794,118.01188 223.60507,113.41908 L 223.60208,108.63321 L 222.18839,105.65533 C 220.81535,102.76308 219.88572,100.36405 219.88572,99.71296 C 219.88572,99.51598 219.763,99.44097 219.56503,99.51694 C 219.0466,99.71588 218.22744,99.02551 217.54305,97.81285 C 216.98055,96.81615 216.24035,96.18994 215.62472,96.18994 C 215.51496,96.18994 215.61483,96.50102 215.84664,96.88124 C 216.12467,97.33721 216.26841,97.9515 216.26892,98.68587 C 216.27005,100.24591 215.52879,101.0841 214.02958,101.21806 C 212.43588,101.36047 209.84848,101.09328 209.95282,100.79707 C 210.00314,100.65432 210.3663,100.57668 210.81497,100.61278 C 211.70003,100.684 211.7125,100.65943 211.24746,99.76012 C 211.02076,99.32172 210.93989,98.78519 211.00861,98.1754 C 211.06577,97.66833 211.06772,97.25347 211.01295,97.25347 C 210.95818,97.25347 210.52198,97.58848 210.04362,97.99794 C 209.10311,98.80296 208.82504,98.90595 208.82504,98.44921 C 208.82504,98.06655 210.80607,96.544 212.02103,95.99289 C 213.15834,95.47701 215.4978,95.40133 216.56207,95.84601 C 217.02953,96.04134 217.49889,96.52383 217.95872,97.28178 C 218.60728,98.35081 219.36024,99.15223 219.72619,99.16308 C 219.81394,99.16568 219.88572,98.7925 219.88572,98.33379 C 219.88572,97.87507 220.08747,96.65468 220.33406,95.6218 C 220.85685,93.43201 220.80852,90.15366 220.22215,88.02802 C 219.75229,86.3247 217.80568,81.14364 217.31037,80.27805 C 217.08899,79.89115 216.90784,79.42435 216.90784,79.2407 C 216.90784,78.75823 214.74555,73.60247 213.08838,70.13353 C 211.18386,66.1469 209.4793,63.45286 207.78662,61.75416 L 206.3865,60.34909 L 206.23152,62.7689 C 205.78012,69.81716 202.6481,74.96684 196.76584,78.33241 C 193.50881,80.19594 188.298,81.51327 184.18372,81.51327 C 182.50307,81.51327 182.42795,81.53585 180.971,82.47833 C 178.53472,84.05436 176.50236,84.79174 172.67443,85.48849 C 171.78902,85.64966 171.7153,85.71529 171.55564,86.48472 C 171.17555,88.31631 169.89478,90.24997 167.40616,92.74932 C 165.3664,94.79786 165.00719,95.2591 165.00404,95.83355 C 164.99677,97.16578 164.37752,99.40966 163.61852,100.85399 C 162.15974,103.63008 159.6908,105.87111 156.12729,107.65375 C 153.9219,108.75699 153.88383,109.00435 155.66553,110.65311 L 156.95861,111.84969 L 156.80938,113.36425 C 156.67905,114.68686 156.72089,115.00429 157.13949,115.86902 C 157.60234,116.82515 157.64429,116.85447 158.35774,116.72062 C 159.13546,116.57472 159.26227,116.89533 158.59366,117.31707 C 157.98296,117.7023 157.16923,117.29058 156.66325,116.34037 C 156.2687,115.59942 156.18819,115.1293 156.20899,113.68835 L 156.23426,111.93692 L 155.11876,110.98392 C 154.3657,110.34054 153.95981,109.81365 153.86951,109.3622 C 153.77981,108.91368 153.63962,108.73039 153.44378,108.80555 C 152.88148,109.02132 149.36468,109.79165 148.39479,109.9115 L 147.41571,110.03248 L 147.27613,111.88531 C 147.19937,112.90436 146.95393,114.55173 146.73074,115.54613 L 146.32493,117.35412 L 147.84941,119.36742 C 150.83939,123.31613 153.5175,125.61448 156.04334,126.39941 C 157.7738,126.93719 158.90377,126.92907 161.21495,126.36226 C 163.47592,125.80777 163.62052,125.88431 163.81027,127.73631 C 163.8857,128.47252 164.33164,130.30645 164.80124,131.8117 C 166.46048,137.13008 167.07904,140.21376 167.27844,144.16079 C 167.50594,148.66447 166.81469,150.94201 164.57065,153.08244 C 163.39929,154.19971 163.21753,154.29982 162.55487,154.19225 C 161.72406,154.05744 161.34853,154.3737 159.95803,156.37931 C 158.6573,158.25544 157.49931,158.97066 153.20568,160.54996 C 141.88743,164.71311 135.52217,169.34539 133.49978,174.89092 C 133.10002,175.98709 132.9996,176.67009 133.01505,178.18784 C 133.05704,182.31436 133.16456,182.88254 134.45347,185.78963 C 139.94882,198.18424 146.42472,217.9386 149.26425,230.96927 L 149.96616,234.19029 L 151.26532,233.23299 C 152.91117,232.02018 157.08307,229.98798 159.62302,229.16179 C 163.0155,228.05837 164.82496,227.76165 168.19832,227.75576 C 171.48458,227.75008 172.57531,227.97029 174.52631,229.03357 C 175.08311,229.33705 175.42985,229.4299 175.42913,229.27535 C 175.4285,229.13734 175.19026,227.78965 174.89974,226.28052 C 173.6351,219.71158 172.71972,212.36724 172.52432,207.22214 C 172.41861,204.43824 172.46932,203.16464 172.76953,201.06297 C 173.3543,196.96934 173.00095,193.92423 171.65095,191.4233 C 171.34938,190.86461 170.99952,190.44155 170.87354,190.48315 C 170.73381,190.52928 170.59951,191.63113 170.52932,193.30694 C 170.37162,197.07229 169.6899,198.5902 168.17595,198.54717 C 166.78785,198.5077 165.67304,197.2 162.44658,191.82632 C 160.23654,188.1455 159.82768,187.77171 159.14733,188.81008 C 158.75814,189.40404 158.41388,189.52347 158.41388,189.06454 C 158.41388,188.47206 159.28076,187.65323 159.90802,187.65323 C 160.62684,187.65323 160.88928,187.99866 163.47539,192.34889 C 165.48633,195.73156 166.67227,197.29757 167.57745,197.76569 C 168.1704,198.07231 168.27755,198.07282 168.73788,197.77122 C 169.49987,197.27195 169.9176,195.59268 170.00472,192.67869 C 170.04625,191.2896 170.17622,190.05704 170.29357,189.93974 C 170.66587,189.56742 171.55054,189.96653 172.0135,190.71559 C 172.71808,191.85565 173.28005,193.71834 173.54667,195.79747 C 173.75436,197.41691 173.73313,198.18515 173.40927,200.76615 C 172.79678,205.64745 173.10505,211.18036 174.49189,220.19715 C 175.3883,226.02535 176.27061,230.22026 176.73819,230.87687 C 177.25291,231.59975 177.18529,232.14368 176.54575,232.42497 C 175.96824,232.67903 175.96924,232.64051 176.47564,235.11628 C 177.14447,238.38616 178.36396,245.81188 178.81278,249.34769 C 179.27273,252.97092 179.72675,254.44571 180.85376,255.97707 C 182.40748,258.08826 184.5058,259.3508 189.32923,261.07675 C 192.10328,262.06936 198.14215,264.5883 199.59465,265.35868 C 200.19501,265.67706 200.21445,265.67097 200.36962,265.11573 C 200.45715,264.80252 201.20287,259.66463 202.02675,253.69827 z M 203.84401,130.46352 C 203.50269,130.38961 203.18382,130.21006 203.13541,130.06453 C 203.06796,129.86179 203.41214,129.83067 204.6068,129.93144 C 206.40633,130.08325 211.2324,129.67246 212.01369,129.30097 C 212.30507,129.16242 212.66925,128.7867 212.82293,128.46605 C 213.14394,127.79627 213.50456,127.69772 213.50456,128.27976 C 213.50456,128.88529 212.72708,129.74156 211.95911,129.98185 C 211.20291,130.21847 206.57149,130.663 205.2788,130.62304 C 204.83097,130.6092 204.18532,130.53742 203.84401,130.46352 z M 197.50892,126.49766 C 196.57449,126.19576 196.10703,125.85347 196.32775,125.63276 C 196.37995,125.58054 197.0396,125.69963 197.79357,125.89738 C 199.03634,126.22335 199.58115,126.23208 203.62252,125.99085 C 212.703,125.44885 213.56657,125.31652 214.89084,124.26411 C 215.33044,123.91476 215.81716,123.62893 215.97244,123.62893 C 216.22172,123.62893 216.69514,124.24676 216.69514,124.57212 C 216.69514,124.81188 216.09004,124.68563 215.99757,124.42658 C 215.93069,124.23924 215.75266,124.29422 215.39489,124.61271 C 214.10694,125.75923 213.38526,125.92071 207.86786,126.29695 C 200.01478,126.83245 198.62835,126.85932 197.50892,126.49766 z M 149.35526,116.55385 C 148.88051,115.81756 147.919,113.47982 147.69414,112.51508 C 147.59756,112.10074 147.64069,111.93014 147.84206,111.93014 C 148.00256,111.93014 148.29059,112.4626 148.50366,113.15319 C 148.7112,113.82587 149.20724,114.97778 149.60602,115.71298 C 150.4233,117.21977 150.432,117.24877 150.06519,117.24514 C 149.91896,117.24369 149.59947,116.93261 149.35526,116.55385 z M 205.98896,116.68056 C 205.65273,116.34432 205.89275,115.4678 206.48259,114.87798 C 206.97142,114.38914 207.27436,114.25797 207.79561,114.3094 C 208.75094,114.40365 208.85452,114.90802 207.91856,114.90802 C 207.0548,114.90802 206.48528,115.44292 206.48528,116.25417 C 206.48528,116.80252 206.28392,116.97551 205.98896,116.68056 z M 212.58282,115.61703 C 212.28516,115.31936 212.46183,114.65517 212.97522,114.14177 C 213.40576,113.71123 213.68119,113.62023 214.39446,113.67284 C 215.6736,113.7672 215.69371,114.22967 214.42221,114.31086 C 213.47168,114.37156 213.38359,114.42586 213.19469,115.06754 C 212.99147,115.75782 212.85034,115.88455 212.58282,115.61703 z M 215.58592,113.94061 C 215.52179,113.87648 215.56478,113.448 215.68143,112.98841 C 216.14347,111.1681 215.55891,110.15104 212.87733,108.10975 C 210.79069,106.52132 210.00545,105.61484 209.12549,103.77866 C 208.08951,101.61692 207.69566,99.5899 207.80397,96.9769 C 207.89901,94.68398 208.55378,92.57395 209.17029,92.57395 C 209.56162,92.57395 209.54369,92.69966 208.99022,93.8362 C 208.62173,94.59291 208.49907,95.28643 208.43474,96.9769 C 208.33359,99.63475 208.75432,101.73472 209.8113,103.8475 C 210.56115,105.34633 210.80129,105.59698 214.13573,108.36082 C 214.89231,108.98795 215.69924,109.82275 215.92885,110.21592 C 216.66436,111.47526 216.36558,114.72026 215.58592,113.94061 z M 186.38462,101.59839 C 184.29121,101.11961 182.59109,100.54955 182.50733,100.29829 C 182.40753,99.99884 185.39304,97.88639 187.16396,97.00342 C 188.22574,96.47401 188.86375,96.3105 190.17116,96.23272 C 192.37067,96.10188 197.55166,96.76169 197.55166,97.17264 C 197.55166,97.53301 197.49964,97.53248 194.99919,97.14711 C 193.88781,96.97583 192.66088,96.83397 192.27272,96.83188 L 191.56694,96.82805 L 192.05954,97.51935 C 192.41395,98.01671 192.54513,98.47916 192.52714,99.16781 C 192.47895,101.01135 192.34504,101.56879 191.90946,101.73899 C 191.23271,102.00345 187.77043,101.91533 186.38462,101.59839 z M 187.66054,100.92263 C 187.1845,99.75823 187.12962,99.17231 187.41818,98.33479 C 187.58277,97.85705 187.67602,97.46617 187.6254,97.46617 C 187.14831,97.46617 183.40456,99.98099 183.59625,100.1727 C 183.70573,100.28218 187.26982,101.2646 187.63045,101.2847 C 187.73069,101.2903 187.74423,101.12736 187.66054,100.92263 z M 191.4746,100.88597 C 192.4529,99.80497 191.97497,97.69172 190.62459,97.1275 C 188.55809,96.26406 186.8646,99.12307 188.44568,100.80605 C 189.05982,101.4598 190.9111,101.50864 191.4746,100.88597 z M 189.18277,100.05506 C 188.2073,98.9772 189.59982,97.41482 190.62353,98.43854 C 191.01909,98.8341 191.06393,99.82741 190.70254,100.1888 C 190.32666,100.56469 189.58488,100.49942 189.18277,100.05506 z M 190.37696,99.54005 C 190.51313,99.14967 190.31576,98.74241 189.99041,98.74241 C 189.61672,98.74241 189.40151,99.11092 189.54968,99.49706 C 189.69491,99.87557 190.24987,99.90441 190.37696,99.54005 z M 181.59875,94.38195 C 181.59875,94.20646 182.14969,93.51251 182.82307,92.83983 C 185.13056,90.53469 188.41999,89.45711 193.51025,89.33881 C 197.16511,89.25387 197.24672,89.65335 193.61661,89.8593 C 192.09576,89.94558 190.08569,90.16613 189.1498,90.34942 C 186.27983,90.91146 183.76124,92.3037 182.64227,93.94669 C 182.11259,94.7244 181.59875,94.93873 181.59875,94.38195 z M 214.63005,90.15324 C 214.73797,89.82747 217.75342,89.54968 218.96914,89.75349 C 220.88027,90.07389 220.16592,90.33992 217.32456,90.36594 C 215.3634,90.38389 214.57426,90.3216 214.63005,90.15324 z M 279.23458,228.02894 C 281.10437,225.71285 282.0945,224.14516 281.89327,223.81952 C 281.65666,223.43669 279.3453,223.58287 277.32064,224.10873 C 276.24432,224.38826 275.27979,224.7009 275.17725,224.80345 C 275.07041,224.91031 275.21268,226.3512 275.51034,228.1771 C 275.79611,229.92998 276.03615,231.45992 276.04378,231.57693 C 276.0607,231.8365 277.03838,230.74937 279.23458,228.02894 z M 285.20774,217.25682 C 289.15761,207.40683 289.83437,196.23509 287.11912,185.70434 C 285.38438,178.97634 281.57138,171.08696 277.32188,165.43315 C 275.45874,162.95429 271.7833,159.41986 269.30005,157.71902 C 264.43518,154.38699 258.0236,151.78057 251.47247,150.4718 L 249.55812,150.08933 L 248.81365,148.61617 C 248.16982,147.34208 248.07004,146.94103 248.0755,145.64898 C 248.08243,144.00722 248.6171,142.65348 249.50372,142.03282 C 249.76761,141.84809 251.13213,140.93664 252.53599,140.00737 C 259.07851,135.67662 267.53247,128.22639 271.60239,123.20468 C 275.03311,118.97164 276.02877,114.72701 275.41434,106.95372 C 274.50571,95.4583 269.53053,78.62177 264.5969,70.34624 C 261.38694,64.96196 256.48283,60.35606 250.11874,56.74849 C 248.14786,55.63126 246.07606,54.69821 246.79295,55.25068 C 255.84169,62.22416 262.45576,74.25475 266.98862,91.9853 C 269.24655,100.81743 269.7784,104.42393 269.6,109.69366 C 269.50981,112.35797 269.36967,113.54255 268.95663,115.13147 C 267.88783,119.24315 266.03226,122.54163 263.18798,125.3859 C 260.58538,127.98849 258.9538,129.12836 250.17528,134.4769 C 245.30448,137.44458 242.94045,140.79585 242.6922,145.08496 C 242.47423,148.85079 243.70583,151.55224 246.48106,153.39559 C 247.44755,154.03755 248.16811,154.3055 249.90774,154.6697 C 266.68456,158.18237 276.45077,166.11772 281.20818,180.10218 C 283.27466,186.17668 284.10864,190.84107 284.27215,197.23932 C 284.396,202.08572 284.22233,204.47092 283.45229,208.49839 C 283.00196,210.85385 281.68573,215.20848 281.36402,215.40732 C 280.92078,215.68127 280.97836,215.03536 281.5472,213.3525 C 284.1361,205.69353 284.47985,196.30288 282.51243,186.9847 C 281.85411,183.86667 280.33618,179.0906 279.14199,176.37986 C 275.01716,167.01671 267.53606,160.63567 256.44144,157.01726 C 252.83406,155.84076 248.25232,154.83116 247.24701,154.99129 C 246.55863,155.10088 246.25492,155.01316 245.3805,154.45203 C 242.73657,152.75547 241.16058,149.54435 241.16191,145.85664 C 241.16305,142.81218 242.00308,140.406 243.9856,137.76867 C 245.55505,135.68084 246.69734,134.81979 252.85505,131.08305 C 255.01933,129.76967 257.37621,128.27691 258.09256,127.76579 C 263.17356,124.1405 266.10813,120.13705 267.45068,114.99918 C 268.1324,112.39023 268.36422,107.48533 267.96839,104.04544 C 267.66151,101.37884 266.73422,96.81382 265.61631,92.46628 C 259.86335,70.09332 250.61356,56.62515 237.96568,52.20558 C 227.68348,48.612646 201.81508,44.709312 179.15264,43.331166 C 176.11096,43.146203 170.89437,42.799786 167.56021,42.561353 C 159.78485,42.005335 146.81439,41.804237 140.81789,42.146725 C 127.8131,42.889498 117.92637,44.614161 113.35655,46.937133 C 110.84714,48.212742 110.80615,47.958394 113.89514,50.2781 C 120.35231,55.12707 125.59522,60.68007 131.24547,68.65447 L 133.40769,71.70612 L 133.89399,70.41248 C 137.11942,61.83267 145.91465,53.34585 156.07411,49.010122 C 160.95436,46.927392 163.75474,46.294913 169.56284,45.963648 C 181.3247,45.292806 194.34455,47.192637 202.86279,50.82271 C 208.826,53.36396 212.709,56.55186 216.20737,61.77848 C 220.58916,68.3249 222.05957,76.54278 219.35792,79.38622 L 218.85266,79.91798 L 219.89651,82.61142 C 221.83769,87.62028 222.08522,88.67811 222.10322,92.04219 C 222.11565,94.37245 222.03354,95.29758 221.72554,96.29617 C 220.9562,98.79046 221.25977,100.2912 223.48676,105.00301 C 224.18726,106.48512 224.86007,108.23689 224.98188,108.89584 C 225.10368,109.55479 225.20335,111.66457 225.20335,113.58426 C 225.20335,117.38037 224.84418,119.77529 223.82689,122.76219 C 223.53107,123.63084 223.28901,124.35768 223.28901,124.37738 C 223.28901,124.39708 224.97483,123.95635 227.03526,123.398 C 231.78703,122.1103 233.31164,121.84152 235.12711,121.97141 C 238.08097,122.18276 239.74599,123.71349 239.72338,126.19697 C 239.7092,127.75605 238.9642,129.22122 237.53001,130.51068 L 236.43271,131.49725 L 236.03404,138.03883 C 235.47137,147.27103 234.7978,157.16795 234.65366,158.32059 L 234.5314,159.29848 L 236.54382,159.43995 C 241.80133,159.80947 245.59789,161.69585 250.08888,166.16999 C 254.7898,170.8533 258.75114,176.50295 265.86479,188.66969 C 270.62845,196.81712 279.15399,212.382 282.31725,218.70659 L 283.53986,221.15104 L 284.06148,219.98283 C 284.34835,219.34027 284.86419,218.1136 285.20774,217.25682 z M 132.11089,174.38936 C 132.91711,172.16826 133.91128,170.68155 135.97346,168.61317 C 139.15436,165.42275 143.34959,162.86108 149.32419,160.46107 C 152.38257,159.23253 152.44405,159.19548 151.66395,159.05032 C 150.47899,158.82986 148.94964,158.12271 148.40579,157.54383 C 147.85895,156.96174 147.91918,156.91953 149.58172,156.72013 C 152.3296,156.39057 155.78607,153.64173 157.42447,150.48297 C 157.86441,149.63481 158.18477,148.94085 158.13636,148.94085 C 158.08797,148.94085 157.34095,149.267 156.4763,149.66561 C 154.49724,150.57795 151.62079,151.35948 148.20402,151.9132 C 145.0311,152.42739 145.22615,152.41978 145.22615,152.02914 C 145.22615,151.85592 145.48937,151.65585 145.81108,151.58462 C 147.32526,151.24938 147.93189,150.93491 148.86587,150.00089 C 150.06153,148.80523 150.54939,147.44082 150.53261,145.33945 C 150.52157,143.95756 150.51751,143.94811 150.16101,144.47406 C 148.66717,146.6779 146.43345,148.13278 143.89892,148.5528 L 142.48505,148.78707 L 141.8001,150.51245 C 140.24626,154.42657 139.54351,155.31896 135.33535,158.72133 C 133.93149,159.85636 132.24137,161.37036 131.57954,162.08573 C 128.84113,165.04575 127.3386,170.39021 128.30767,173.72372 C 128.73336,175.188 129.43296,176.62376 130.51842,178.26076 L 131.29394,179.43029 L 131.44666,177.61444 C 131.53226,176.59667 131.82421,175.17922 132.11089,174.38936 z M 155.76897,158.00677 C 157.13816,157.36918 158.2837,156.36434 158.96319,155.2049 C 159.25638,154.70462 159.93093,153.89461 160.46218,153.40493 C 161.29425,152.63796 161.5329,152.52679 162.18421,152.60285 C 162.84302,152.67977 163.04817,152.57986 163.779,151.82634 C 164.80646,150.76696 165.30702,149.82037 165.61965,148.34548 C 166.3093,145.09166 165.48245,138.79994 163.59387,132.9308 C 163.18848,131.67098 162.72499,130.0103 162.5639,129.24042 C 162.40282,128.47052 162.23979,127.80936 162.20159,127.77117 C 162.16341,127.73297 161.51091,127.83488 160.7516,127.99762 C 158.15423,128.55431 156.22442,128.30216 153.92598,127.10578 C 151.62888,125.91009 148.83267,123.28018 146.64308,120.25597 L 145.97202,119.32912 L 145.83942,120.14962 C 145.76648,120.6009 145.64298,124.08093 145.565,127.88304 C 145.37201,137.29129 145.00874,140.53704 143.60809,145.36795 C 143.21115,146.737 142.88638,147.91795 142.88638,147.99229 C 142.88638,148.20494 144.58309,147.86792 145.81036,147.41151 C 147.28611,146.86271 149.0226,145.24783 149.89298,143.61482 C 150.84587,141.82702 151.07616,142.13166 151.07325,145.17599 C 151.0706,147.91876 150.68703,149.07658 149.31021,150.49794 C 148.57187,151.26014 148.55605,151.30347 149.05484,151.1961 C 154.18606,150.09182 156.73435,149.18988 158.1524,147.9761 C 158.62588,147.57082 159.06982,147.23923 159.13897,147.23923 C 159.69106,147.23923 158.55058,150.05311 157.18742,152.05431 C 155.49243,154.54261 152.60635,156.73439 150.42919,157.18672 C 149.36136,157.40856 149.42661,157.68341 150.65013,158.11754 C 152.23234,158.67896 154.42738,158.63147 155.76897,158.00677 z M 154.37247,145.56363 C 154.37247,145.46097 154.52611,145.24946 154.71389,145.09361 C 155.27383,144.6289 156.71128,142.40168 157.28618,141.10799 C 158.33796,138.74125 158.8803,136.10021 158.95364,132.98797 C 158.99086,131.40864 159.1,130.13175 159.19616,130.15046 C 159.89066,130.28557 159.65961,135.52024 158.8268,138.51831 C 158.23359,140.65378 156.97884,143.26669 155.89012,144.63359 C 155.09535,145.63143 154.37247,146.07443 154.37247,145.56363 z M 145.73232,138.68961 C 145.64392,138.54657 145.70786,138.39634 145.87976,138.34315 C 146.55968,138.1328 148.21399,136.12414 148.91783,134.6544 C 150.04119,132.3086 150.5781,130.06165 150.63756,127.45763 C 150.68933,125.18999 150.94945,124.5928 151.23012,126.09724 C 151.76254,128.95107 149.92321,135.17066 147.87703,137.43555 C 146.90033,138.51662 145.96383,139.06422 145.73232,138.68961 z M 96.00554,146.36494 C 97.67014,145.74553 98.85637,144.58279 98.85637,143.5706 C 98.85637,142.84249 98.19144,141.70889 97.76437,141.70889 C 97.63615,141.70889 97.60921,142.07671 97.69541,142.65124 C 97.82286,143.50146 97.76888,143.67798 97.14332,144.4564 C 96.12595,145.72239 94.8527,146.26761 92.90062,146.2732 C 91.1289,146.27827 90.27207,145.96395 89.12506,144.88817 C 88.53634,144.33599 88.4338,144.09238 88.4338,143.24612 L 88.4338,142.25247 L 87.96004,142.72622 C 87.34199,143.3443 87.31479,144.67586 87.90687,145.33053 C 88.41741,145.89502 89.63377,146.53497 90.71705,146.80899 C 91.93433,147.11689 94.58231,146.89456 96.00554,146.36494 z M 95.4881,145.07614 C 96.21433,144.67187 96.40293,144.45168 96.37589,144.03985 C 96.35696,143.75222 96.1881,141.9854 96.00062,140.1136 C 95.81308,138.24179 95.50587,134.84382 95.31787,132.56256 C 95.12984,130.28129 94.94627,128.38141 94.90989,128.34058 C 94.83123,128.2523 88.37453,129.57305 88.24332,129.70427 C 88.19354,129.75405 88.30217,129.96287 88.48474,130.16833 C 88.72879,130.44305 88.90998,131.61096 89.16957,134.58326 C 89.36364,136.80603 89.61252,139.56804 89.72257,140.72107 C 89.83267,141.87411 89.92274,143.28257 89.92274,143.851 C 89.92274,144.94189 90.08728,145.1325 91.39924,145.56136 C 92.3785,145.88145 94.49199,145.63065 95.4881,145.07614 z M 105.18435,133.07446 L 112.89492,131.61013 L 112.87939,130.75693 C 112.87087,130.28768 112.55979,128.85085 112.18808,127.56398 C 111.54602,125.34103 111.48574,125.22749 110.98053,125.28957 C 110.68808,125.3255 107.62516,125.8829 104.17398,126.52823 C 100.72286,127.17357 97.57465,127.7571 97.17807,127.82498 L 96.45691,127.94838 L 96.59076,129.98959 C 96.82249,133.52432 96.98938,134.71671 97.23932,134.6249 C 97.36824,134.57754 100.94353,133.87984 105.18435,133.07446 z M 77.373124,130.4285 C 79.482957,130.09168 86.295396,128.53162 87.07043,128.2078 C 89.14876,127.3394 91.53111,125.28216 92.36572,123.63508 C 93.73025,120.94229 93.70067,119.37686 92.16032,112.78096 C 90.72086,106.61719 89.64321,102.95185 86.516366,93.58524 C 80.926941,76.84169 76.243416,65.76437 72.239646,59.81855 C 68.42847,54.15871 65.076188,51.32779 61.96253,51.1398 C 60.805228,51.06992 60.574462,51.1298 59.66958,51.73465 C 56.261692,54.01254 54.1002,58.64409 53.007235,66.01066 C 52.28065,70.90772 52.430735,100.1197 53.224595,108.31415 C 54.141455,117.77791 55.309471,123.42328 56.71733,125.19481 C 58.919812,127.9663 63.504848,130.04097 68.750467,130.63969 C 70.720865,130.86459 75.351876,130.75116 77.373124,130.4285 z M 237.84915,127.88304 C 238.30892,126.97239 238.40315,125.98338 238.09873,125.26418 C 237.81944,124.60444 236.98112,123.68523 236.81871,123.86066 C 236.77423,123.90869 236.69875,125.16662 236.65094,126.65605 L 236.56403,129.36412 L 237.07236,128.88947 C 237.35193,128.62841 237.7015,128.17551 237.84915,127.88304 z M 92.07371,127.34068 C 94.68435,126.80331 106.46978,124.5662 109.43847,124.04451 C 110.49141,123.85946 110.98053,123.67883 110.98053,123.47502 C 110.98053,122.78862 107.05795,109.58127 104.77204,102.5711 C 101.27728,91.85376 97.9211,84.79723 93.78022,79.46053 C 92.97698,78.42526 90.91159,76.04675 89.19057,74.17494 C 84.403987,68.96906 82.217284,65.8603 81.084838,62.65117 C 80.462935,60.88893 80.388293,58.35821 80.906695,56.61253 C 81.936805,53.14377 85.600115,47.884488 88.12251,46.253112 C 88.53538,45.986076 88.53527,45.984121 88.11475,46.082273 C 87.88074,46.136888 85.439981,46.526251 82.690738,46.947519 C 76.673933,47.869482 63.470042,49.984353 62.620621,50.16215 C 62.067158,50.27801 62.135861,50.33067 63.391498,50.75322 C 65.740618,51.54379 67.667843,53.01267 69.981493,55.77592 C 74.349424,60.99275 77.854228,67.94462 82.796167,81.19421 C 87.30764,93.28958 90.88495,104.6052 92.74849,112.6746 C 93.99069,118.05377 94.06563,118.52547 93.93072,120.11929 C 93.67504,123.14076 92.51946,125.2605 90.16258,127.03144 C 89.53919,127.49982 89.12136,127.88304 89.234,127.88304 C 89.34664,127.88304 90.62451,127.63898 92.07371,127.34068 z M 151.07554,107.88858 C 154.75126,107.03914 158.22059,105.12405 160.50224,102.68496 C 162.46791,100.58365 163.51881,97.99393 163.51881,95.25123 C 163.51881,94.17025 163.55648,94.09462 164.37948,93.5243 C 164.85285,93.19625 166.04189,92.08534 167.02183,91.05559 C 168.79713,89.19007 169.91594,87.35972 170.22179,85.82055 L 170.35917,85.12926 L 167.41756,85.12776 C 164.1279,85.12608 161.40547,84.78219 158.97888,84.06182 C 156.56243,83.34445 156.77919,83.00221 159.65003,83.00221 C 161.26751,83.00221 162.45066,82.87385 163.63826,82.5695 C 165.84371,82.00433 169.49885,80.17381 172.01283,78.37546 C 175.62997,75.78798 180.68125,70.59666 183.91307,66.14531 C 184.65627,65.12166 185.3489,64.28414 185.45226,64.28414 C 186.38964,64.28414 182.79003,69.01959 178.52527,73.39688 C 172.31224,79.77385 166.58061,83.11503 160.85998,83.69468 C 159.68611,83.81363 162.35575,84.28814 165.31991,84.48741 C 168.01678,84.66872 170.00585,84.58736 170.43172,84.27834 C 170.54871,84.19345 171.2666,84.06883 172.02702,84.00139 C 174.26616,83.80284 179.5688,81.74213 181.37418,80.36888 C 181.77713,80.06239 182.24006,79.81163 182.40295,79.81163 C 182.8614,79.81163 185.57826,77.8564 187.27942,76.30221 C 190.22602,73.61019 192.7191,69.6158 193.70986,65.99946 C 194.40449,63.46394 194.65999,60.23987 194.38694,57.45567 C 194.25789,56.13969 194.20087,55.0144 194.26023,54.95504 C 194.83428,54.38099 195.29064,58.85811 194.98615,62.07663 C 194.33842,68.92297 190.83079,74.81309 184.91549,78.98756 L 183.44638,80.02433 L 184.70279,80.02308 C 185.39382,80.02239 186.86892,79.88469 187.98079,79.71707 C 194.88667,78.67601 200.53094,74.98261 202.99107,69.89491 C 204.22412,67.34489 204.62747,65.45101 204.67497,61.9885 C 204.7228,58.50201 204.80164,58.30979 206.00682,58.74123 C 209.52199,59.99965 213.25083,65.7688 217.54715,76.59619 C 218.18863,78.21278 218.28162,78.34252 218.54281,77.98535 C 219.08827,77.23938 219.3001,75.90454 219.18124,73.96223 C 218.8681,68.84508 215.55564,62.25562 211.05496,57.79662 C 204.75572,51.55571 192.80953,47.946752 176.49383,47.355636 C 172.31396,47.204197 166.66199,47.504484 163.94815,48.022167 C 158.38686,49.083027 151.08975,52.65645 146.01218,56.80549 C 142.62965,59.56944 139.45177,63.18321 137.37804,66.6239 C 136.32853,68.3652 134.59087,72.40134 134.59087,73.09775 C 134.59087,73.28334 135.29647,74.60667 136.15886,76.03848 C 139.4942,81.576 142.22432,87.73005 144.02708,93.77453 C 145.15333,97.55077 146.36901,102.86253 146.86961,106.19458 L 147.22426,108.55525 L 148.29908,108.41853 C 148.89023,108.34333 150.13964,108.10485 151.07554,107.88858 z M 163.09339,73.89449 C 163.09339,73.1948 163.76128,71.22616 164.58584,69.49541 C 167.77936,62.79231 176.87517,53.19633 182.10331,51.01468 C 183.09392,50.60132 183.30153,50.58777 183.29677,50.93688 C 183.29477,51.08311 182.75676,51.43505 182.10123,51.71896 C 180.05266,52.60615 177.35493,54.70089 174.13823,57.90209 C 169.85136,62.16825 167.03308,65.8949 165.11808,69.82949 C 164.59048,70.9135 164.04351,72.35862 163.90259,73.04085 C 163.7488,73.78541 163.53587,74.28129 163.36989,74.28129 C 163.21781,74.28129 163.09339,74.10723 163.09339,73.89449 z M 214.92988,100.33704 C 216.03913,99.56009 215.99153,97.52208 214.84305,96.61868 C 212.86485,95.06263 210.48838,98.03843 212.14088,100.00232 C 212.5944,100.54129 212.84875,100.65675 213.58249,100.65675 C 214.0725,100.65675 214.67882,100.51288 214.92988,100.33704 z M 213.12648,99.47481 C 212.19395,98.82165 212.85881,97.04587 213.90121,97.40559 C 214.80528,97.71758 215.03208,98.70382 214.35539,99.38052 C 213.8433,99.89261 213.73484,99.90094 213.12648,99.47481 z M 214.10943,98.64901 C 214.22758,98.03958 213.77598,97.74172 213.36177,98.15591 C 213.06719,98.45048 213.05524,98.56365 213.28888,98.84517 C 213.62769,99.25343 214.00999,99.16205 214.10943,98.64901 z M 252.34094,55.6164 C 251.80028,53.03496 251.85317,46.975941 252.42958,45.459889 C 252.55314,45.134873 252.61091,44.825618 252.55795,44.772649 C 252.43689,44.651605 236.50561,43.238844 235.1803,43.231622 C 234.49145,43.227875 234.09684,43.343508 233.84364,43.623286 C 233.36707,44.149901 233.05763,46.240107 233.24336,47.678079 L 233.39251,48.832917 L 236.58309,49.745402 C 241.27691,51.0878 244.87911,52.47628 248.70713,54.41862 C 250.57902,55.36842 252.18998,56.15809 252.28703,56.17344 C 252.38405,56.18878 252.40831,55.93811 252.34094,55.6164 z M 254.47482,50.38911 C 254.57503,50.06676 254.49297,50.01261 253.99118,50.07005 C 253.57487,50.1177 253.39232,50.25506 253.40453,50.51147 C 253.4143,50.71619 253.44778,51.43408 253.47895,52.10675 L 253.53564,53.32981 L 253.94489,52.05358 C 254.16998,51.35165 254.40844,50.60264 254.47482,50.38911 z M 257.35796,47.945115 C 259.97717,46.79819 261.59837,44.077542 261.26283,41.392027 L 261.12372,40.278617 L 260.41405,40.697338 C 259.75723,41.084864 259.7128,41.178951 259.81758,41.960206 C 259.97398,43.126176 259.3974,44.52011 258.37769,45.441363 C 257.33303,46.385144 256.39392,46.781773 254.76844,46.965673 L 253.49317,47.109955 L 253.49317,47.85553 L 253.49317,48.601105 L 254.92893,48.490583 C 255.7186,48.429793 256.81167,48.184339 257.35796,47.945115 z M 111.06395,46.54677 C 115.4263,43.560177 125.79513,41.517101 140.97204,40.653683 C 147.42938,40.28632 159.78327,40.520733 169.1555,41.188474 C 178.6586,41.865527 178.10339,41.865 177.02559,41.195941 C 170.40984,37.089171 146.08307,37.858065 106.32309,43.43061 C 102.1194,44.019789 100.78075,44.289836 102.06395,44.289836 C 103.22435,44.289836 105.98998,45.442927 109.64909,47.452352 C 109.6772,47.467786 110.31388,47.060269 111.06395,46.54677 z M 231.87473,44.662064 C 231.98789,43.738192 231.94852,43.508636 231.64671,43.332658 C 231.44609,43.21567 231.00589,42.854974 230.66851,42.531113 C 230.12208,42.006608 230.06589,41.832295 230.15431,40.935826 C 230.20889,40.382272 230.31683,39.737942 230.39415,39.503965 C 230.50713,39.162178 230.3557,38.974022 229.62388,38.546788 C 229.1229,38.254322 228.65318,37.987113 228.58009,37.952998 C 228.50701,37.918892 228.30311,38.253895 228.12699,38.697472 C 227.07037,41.358667 227.7065,43.56929 229.96574,45.087479 C 231.44098,46.078808 231.70852,46.019191 231.87473,44.662064 z M 254.55669,45.35336 C 254.55669,45.236372 254.46098,45.140657 254.34399,45.140657 C 254.22699,45.140657 254.13128,45.236372 254.13128,45.35336 C 254.13128,45.470348 254.22699,45.566063 254.34399,45.566063 C 254.46098,45.566063 254.55669,45.470348 254.55669,45.35336 z M 257.00822,44.711895 C 257.81349,44.214211 258.44137,43.03901 258.34563,42.208688 C 258.28087,41.646858 258.23822,41.629732 256.7901,41.584049 C 247.34532,41.286144 235.84485,40.562752 233.62585,40.126986 C 231.77042,39.762634 231.59396,39.832583 231.58777,40.934825 C 231.58562,41.319568 231.76178,41.631006 232.11101,41.859825 C 232.57177,42.161731 232.77233,42.170235 233.71757,41.927982 C 234.67519,41.682547 235.93085,41.749467 244.79445,42.518307 C 254.30764,43.343481 254.81632,43.408937 255.30846,43.871269 C 255.59289,44.138487 255.88157,44.533416 255.94996,44.748884 C 256.10547,45.238837 256.15862,45.236981 257.00822,44.711895 z M 258.59038,39.834002 C 260.1515,39.532796 260.27356,39.229317 260.1992,35.833779 C 260.04849,28.954675 258.10881,21.491048 256.01349,19.72796 C 255.16882,19.017218 253.44152,18.417708 251.36263,18.113737 C 247.80425,17.593434 240.62641,18.251016 238.63748,19.279534 C 237.20039,20.022681 235.43468,22.819417 231.23702,31.00117 C 229.69557,34.005689 228.86144,35.856526 228.94763,36.081152 C 229.15218,36.614224 230.7736,37.649991 232.30708,38.227192 C 233.90849,38.829958 235.86281,39.048264 243.70873,39.500773 C 253.18883,40.047533 257.03709,40.133698 258.59038,39.834002 z M 256.0187,37.536441 C 256.0039,37.448702 256.01183,36.228299 256.03633,34.824451 C 256.14415,28.646693 254.79986,22.796653 252.77116,20.615407 C 252.15229,19.950003 252.06766,19.61601 252.51787,19.61601 C 253.40438,19.61601 255.27651,23.363294 255.91841,26.422583 C 256.66522,29.981929 256.88478,37.695966 256.23924,37.695966 C 256.13275,37.695966 256.03351,37.62418 256.0187,37.536441 z M 337.30459,356.08546 C 337.30985,355.80958 351.70342,346.08619 352.31755,345.94362 C 353.35655,345.7025 351.77487,346.88807 345.25737,351.2358 C 341.21128,353.93488 337.76546,356.19515 337.59997,356.25868 C 337.43068,356.32363 337.30148,356.24786 337.30459,356.08546 z M 327.40828,316.43749 C 325.30249,315.5765 323.48387,314.8314 323.36688,314.78178 C 323.22507,314.7216 323.22507,314.61773 323.36688,314.47019 C 323.61066,314.21659 331.80399,317.40291 331.93744,317.80329 C 332.08895,318.25776 331.21807,317.99519 327.40828,316.43749 z M 383.58038,284.41401 C 371.18949,282.31949 361.00197,280.55631 360.94143,280.49573 C 360.88091,280.43525 360.92071,280.30105 361.02992,280.19754 C 361.31249,279.92968 407.11685,287.66969 407.22833,288.00411 C 407.28346,288.16952 407.09713,288.25556 406.71193,288.24258 C 406.38046,288.23136 395.97126,286.50857 383.58038,284.41401 z M 382.07355,262.64728 C 368.97091,260.15908 357.89162,258.0566 357.45291,257.97501 C 356.93463,257.87866 356.65526,257.71031 356.65526,257.49426 C 356.65526,257.25691 356.79222,257.19495 357.13386,257.27771 C 357.78642,257.43571 406.09847,266.56693 406.28205,266.56693 C 406.36251,266.56693 406.42832,266.71052 406.42832,266.88597 C 406.42832,267.06148 406.30868,267.19746 406.16244,267.18812 C 406.0162,267.17884 395.17621,265.13547 382.07355,262.64728 z M 393.45329,236.13705 C 384.7377,234.98776 372.71321,233.42286 366.73218,232.6596 C 355.12815,231.17867 353.66892,230.8753 353.20004,229.84622 C 352.83559,229.04631 353.23181,228.26335 354.39638,227.48233 C 355.39346,226.81364 356.12757,226.58409 355.98169,226.98676 C 355.9427,227.09437 355.43221,227.50115 354.84727,227.89072 C 353.47789,228.80271 353.30873,229.54578 354.35741,230.04247 C 355.54116,230.60314 356.6758,230.79275 365.48254,231.90171 C 379.46301,233.66209 409.91788,237.63979 410.20384,237.74269 C 410.69771,237.92038 410.47408,238.27732 409.88478,238.25196 C 409.56307,238.23811 402.1689,237.2864 393.45329,236.13705 z M 346.37967,236.8539 C 345.75929,235.85012 346.23572,233.1232 347.3292,231.41917 C 350.42419,226.59607 361.08044,222.52431 369.89988,222.79494 C 372.67998,222.88024 414.00665,228.58991 414.39059,228.94179 C 414.49979,229.04184 414.52529,229.18752 414.44727,229.26555 C 414.36928,229.34354 404.66034,228.05253 392.87186,226.39661 C 369.69425,223.14089 368.90986,223.06625 364.63172,223.71063 C 360.06149,224.39901 355.08093,226.08492 352.06573,227.96419 C 348.46753,230.20687 346.77752,232.55349 346.753,235.34111 C 346.74094,236.71436 346.61323,237.23184 346.37967,236.8539 z M 338.05889,222.51933 C 337.60108,221.20442 330.45194,195.81178 329.63496,192.59888 C 327.54305,184.37193 326.73822,179.07883 326.94239,174.89092 C 327.12073,171.23324 327.94181,168.96703 329.7403,167.16853 C 332.61403,164.29477 337.02157,163.73684 346.33906,165.06722 C 358.75023,166.83938 391.50317,170.67917 409.19349,172.43596 C 413.24436,172.83827 413.87301,172.94076 413.87301,173.19892 C 413.87301,173.53035 412.83771,173.45216 402.43314,172.33524 C 379.46711,169.86988 362.21666,167.83519 349.84869,166.13294 C 338.40098,164.55734 335.31618,164.58651 331.93006,166.30241 C 326.77067,168.91685 326.18854,176.33313 329.9603,191.39636 C 330.57832,193.86451 332.78228,201.83938 334.85801,209.11822 C 337.60406,218.74769 338.5683,222.41633 338.39796,222.58666 C 338.22763,222.75699 338.13527,222.73867 338.05889,222.51933 z M 66.780014,159.76874 C 66.857849,159.53528 96.8402,151.94035 97.73965,151.92624 C 98.49927,151.91432 98.29545,152.30714 97.4206,152.5411 C 94.64558,153.28326 67.260208,160.00152 67.010007,160.00152 C 66.840796,160.00152 66.737341,159.89675 66.780014,159.76874 z M 384.94509,132.33131 C 358.96638,129.19661 320.3173,124.62681 306.88222,123.10127 C 294.09071,121.6488 292.04849,121.23396 288.80226,119.42852 C 284.38892,116.97397 282.75922,112.93114 283.7973,107.0126 C 284.21651,104.62254 286.6635,95.9479 287.76224,92.95689 C 293.79943,76.52232 309.81082,50.81847 325.36527,32.591046 C 337.23844,18.677504 344.35709,16.263428 382.07355,13.360118 C 398.91191,12.063945 408.31462,11.434257 408.47257,11.592209 C 408.5571,11.676737 408.56242,11.809769 408.48437,11.887803 C 408.40633,11.965856 403.96345,12.344178 398.61132,12.728529 C 373.18971,14.554136 364.83623,15.318792 356.86798,16.549637 C 343.87236,18.557051 336.94994,21.519161 330.62182,27.780428 C 322.76563,35.553619 310.19483,52.55151 301.07357,67.73481 C 296.18249,75.87651 291.634,84.79162 289.1214,91.16126 C 287.65774,94.87181 285.29735,102.74267 284.52462,106.48951 C 284.18529,108.13498 284.10317,109.16212 284.17128,110.90891 C 284.25336,113.01439 284.31877,113.30352 285.04556,114.77411 C 286.00173,116.70877 287.37356,118.01611 289.64611,119.15835 C 292.75317,120.72006 294.87629,121.15686 304.64881,122.24494 C 314.01824,123.28814 344.17893,126.83589 377.07498,130.76431 C 392.22492,132.5735 405.09891,134.10688 405.68385,134.17182 C 407.25909,134.34673 407.70456,134.46176 407.70456,134.69366 C 407.70456,134.80842 407.29776,134.89266 406.80056,134.88085 C 406.30336,134.86905 396.46839,133.72176 384.94509,132.33131 z M 383.56249,126.48557 C 370.57684,125.15856 347.03034,122.77463 331.23697,121.18795 C 312.7458,119.33023 301.94555,118.15944 300.90347,117.89965 C 295.27506,116.49654 292.41825,112.92533 292.41825,107.29251 C 292.41825,98.85865 299.0514,85.21557 315.81054,59.17921 C 321.99417,49.572589 326.08315,43.836653 330.00088,39.273327 C 339.304,28.437191 347.22636,22.441032 354.56484,20.681763 C 356.78995,20.148336 358.31782,20.117432 358.50378,20.602101 C 358.77188,21.300737 358.2657,21.63061 356.67917,21.791181 C 352.84835,22.178907 348.12334,24.472994 343.04502,28.410843 C 338.96973,31.570922 331.32317,39.582646 327.38224,44.821598 C 323.0828,50.5372 313.971,64.51607 307.44666,75.40582 C 301.25686,85.73725 297.52724,93.18566 295.49518,99.27417 C 294.30099,102.85225 293.90719,104.84975 293.90719,107.32906 C 293.90719,111.5324 295.47168,114.10733 298.98625,115.68839 C 301.35596,116.75443 295.44983,116.10686 383.03073,124.90335 C 397.12778,126.31924 408.86654,127.52021 409.11685,127.57218 C 409.62535,127.67774 409.88127,128.14424 409.69582,128.62751 C 409.60535,128.86327 409.26003,128.94026 408.37309,128.92245 C 407.71293,128.90918 396.54815,127.81258 383.56249,126.48557 z M 375.26666,86.31786 C 357.96062,68.84183 343.7629,54.42859 343.71619,54.28846 C 343.6686,54.14577 343.77855,54.06598 343.96605,54.10715 C 344.15019,54.14756 356.80687,66.81533 372.09202,82.25775 C 387.37718,97.70015 401.52044,111.98409 403.52154,113.99983 C 405.95981,116.45597 407.08935,117.73535 406.94605,117.87865 C 406.80275,118.02195 396.3537,107.61202 375.26666,86.31786 z M 393.13423,93.82891 C 380.73352,81.30036 370.55653,70.91538 370.5187,70.75117 C 370.48086,70.58695 370.54099,70.45259 370.65231,70.45259 C 370.88347,70.45259 416.05441,116.02824 416.17156,116.3797 C 416.21373,116.50618 416.1206,116.6093 415.96461,116.60887 C 415.80863,116.60843 405.53496,106.35745 393.13423,93.82891 z M 366.73161,89.27868 C 363.35389,85.82844 353.13276,75.48734 344.01798,66.29846 C 332.86155,55.05135 327.51583,49.521194 327.66044,49.376593 C 327.91086,49.126155 373.5305,95.05132 373.33905,95.36112 C 373.27422,95.466 373.14281,95.55182 373.04702,95.55182 C 372.95124,95.55182 370.10931,92.72891 366.73161,89.27868 z "
       id="path2170" />
  </g>
</svg>
